<svg xmlns="http://www.w3.org/2000/svg" version="1.1" xmlns:xlink="http://www.w3.org/1999/xlink" width="1000" height="1000"><metadata><rdf:RDF xmlns:rdf="http://www.w3.org/1999/02/22-rdf-syntax-ns#" xmlns:dc="http://purl.org/dc/elements/1.1/"><rdf:Description><dc:creator>RealFaviconGenerator</dc:creator><dc:source>https://realfavicongenerator.net</dc:source></rdf:Description></rdf:RDF></metadata><style>
    #light-icon {
      display: inline;
    }
    #dark-icon {
      display: none;
    }

    @media (prefers-color-scheme: dark) {
      #light-icon {
        display: none;
      }
      #dark-icon {
        display: inline;
      }
    }
  </style><g id="light-icon"><svg xmlns="http://www.w3.org/2000/svg" version="1.1" xmlns:xlink="http://www.w3.org/1999/xlink" width="1000" height="1000"><g><g transform="matrix(2.1882316899713343,0,0,2.1882316899713343,-5.684341886080802e-14,153.65762926978707)"><svg xmlns="http://www.w3.org/2000/svg" id="Layer_2" viewBox="0 0 456.99 316.55" width="456.99" height="316.55"><defs><style>.cls-1{fill:#084466;}.cls-1,.cls-2{stroke-width:0px;}.cls-2{fill:#cca162;}</style></defs><g id="Logos"><g id="Arca-lui-Noe_Brandmark-ColorD"><path id="Brandmark" class="cls-1" d="M216.95,130.91c-8.15-2.02-16.75.54-24.85,1.89-11.24-28.56-45.5-22.24-60.29-.22-16.09,18.56-32.19,55.21,3.02,62.35-1,1.97-2.24,3.87-3.64,5.67-.03.05-.07.09-.1.13-4.51,5.71-10.75,10.37-16.67,12.87-5.04.78-4.09,8.21,1,7.08,12.04-4.74,22.77-14.23,27.33-26.5,18.98-4.55,23.7-30.82,7.66-41.86-2.44-1.73-6.69-4.63-8.88-1.08-.79,1.49-.54,4.04,1.27,4.8,1.37.62,2.82,1.31,3.97,2.27,12.77,9.69,5.51,31.31-12.2,29.57-24.84-6.36-11.02-32.98.06-47.54,9.03-13.41,27.47-27.31,43.08-15.71,0,0,0-.01-.01-.02,1.37.99,3.62,3.42,4.15,4.15,3.83,3.09,2.86,12.18,8.84,11.56,7.69-1.63,15.63-3.67,23.53-2.92,2.23.98,2.9,3.87,3.32,6.07.01,0,.03.25.05.34.27,1.99-.03,3.95-.07,5.92-.23,2.83-2.83,9.91-5.8,13.21-.23.41-3.63,4.12-5.22,5.16,0,.06-.21.21-.29.27-3.74,2.82-8.13,4.82-12.78,5.51-2.68.19-6.93-.03-6.84,3.72,1.76,5.68.4,35.07,6.56,34.08,1.75-.08,3.71-1.55,3.51-3.51-.91-9.1-1.81-18.2-2.73-27.31,21.21-1.23,43.51-34.87,22.99-49.96ZM344.98,216.06c-.62-1.92-2.25-2.68-4.11-2.48-13.13,2.69-31.45-9.03-29.83-24.01,3.43-12.01,16.7-24.85,7.86-37.61,4.15-8.83,6.17-26.82-2.6-32.92-5.98,1.4-10.15,7.91-15.33,11.26-10.73-10.97-24.22,1.84-35.95-.66-14.24-11.35-24.14,4.12-29.74,16.24-7.36,18.92,15.14,35.52,13.39,52.56-8.24,19.92,17.63,10.04,2.01-20.12-6.21-11.08-15.17-25.05-5.17-36.75,2.6-3.17,4.68-7.49,8.6-9.12.86-.08,1.85.21,2.59.65,10.69,9.06,22.57-.26,34.17-.17.99.17,2.03.32,2.94.78-.06-.03-.14-.09-.23-.16,1.32.62,2.68,1.46,3.12,2.97,3.98,7.82,13.08-5.98,17.57-8.19,1.18,3.88,1.37,8.03.88,12.05-.14,1.92-1.73,7.65-3.55,10.4-1.57,3.78,2.13,4.71,3.06,8.83,0,.03.01.06.02.08-.01.01-.01.02,0,.02.42,1.93.23,4.56-1.38,8.48-.06.11-.11.27-.16.38-2.52,5.96-6.38,11.31-8.51,17.4-3.57,14.95,8.64,30.17,22.93,33.6,4.66.65,18.06,4.31,17.41-3.5ZM254.73,132.42c.14,0,.25.01.3.05-.1-.01-.19-.03-.3-.05ZM239.06,316.1c6.56-9.11,5.91-22.02,12.02-31.59,13.33-19.66,37.07-31.23,60.04-35.05,12.63-2.09,28.88,1.2,42.44-2.58,15.51-3.39,30.86-11.55,47.08-8.76,0,0,.01.01.02.01h.02c.18.05.16.09,0,.01,6.38,6.08-6.13,8.15-10.25,9.24-11.1,2.77-21.6,7.26-32.47,10.78-5.31,2.89-31.38,7.33-29.66,13.81.39,1.71,2.6,3.12,4.33,2.45,11.9-4.78,24.25-8.32,36.3-12.67,10.91-6.87,45.19-6.15,39.86-23.96,9.36-3.89,17.06-10.64,23.91-17.95,2.82-3.2,14.34-14.09,17.2-7.2.01-.06.01-.1.01-.16,0,.24.08.63.03.76-.05.25-.11.59-.1.41-21.26,27.15-52.77,44.64-82.19,61.89-16.72,5.33-34.68,5.83-51.57,10.89-14.21,2.62-25.84,11.97-32.19,24.85-2.34,3.95,3.88,7.45,6.06,3.55,1.63-2.94,3.45-5.77,5.48-8.44,1.05-1.42,4.05-4.76,6.19-6.34,21.39-13.98,52.73-8.84,75.55-21.55,27.98-17.32,57.33-34.11,78.25-60.08,4.85-7.47-2.31-17.13-10.85-14.63-13.48,2.76-19.71,17.23-31.14,23.62,8.28-15.06,21.49-28.23,25.92-45.03.31-14-17.29-13.43-22.69-2.88-10.22-7.57-19.97,4.34-24.17,13-16.15-7.61-22.08,11.77-27.81,22.68-7.69,11.39-19.06,20.15-30.98,26.77-37.66-3.01-85.53,15.99-95.03,55.87-.21,4.79-10.57,20.97.4,18.27ZM449.06,210.91c.09.07.17.13.19.16-.08-.07-.15-.13-.19-.16ZM447.75,210.5c.07-.03.24.01.41.06-.14-.01-.27-.03-.41-.06ZM432.34,180.54s.02.05,0,.02v-.02ZM391.18,230.67c12.72-13.61,20.51-30.41,30.28-45.99,1.73-2.13,3.47-4.62,5.97-5.97,1.21-.71,3.95-.1,4.78,1.57h.01v.02s.02.03.02.05c.43,5.24-3.64,9.81-6,14.22-7.86,12.29-15.94,24.44-23.66,36.84-1.38-.46-2.86-.65-4.36-.74-2.34-.15-4.69-.13-7.04,0ZM373.79,233.76c13.99-13.76,19.95-33.03,32.06-47.95.59-.42,1.2-.79,1.86-1.08-.02,0-.03,0-.05.01.14-.07.8-.32.32-.07,1.06-.46,2.33-.6,3.41-.22,0-.01-.01-.01-.01-.01.06-.01.16.03.29.1-.07-.02-.16-.06-.22-.07.44.16.86.41,1.2.76-8.83,16.8-18.74,33.01-31.96,46.79-2.33.48-4.61,1.08-6.89,1.73ZM348.79,240.73c14.63-9.56,23.95-23.79,30.79-39.5.08-.11.23-.31.26-.31,0,.01-.01.05-.07.14.76-.98,1.62-1.78,2.76-2.26.84-.32,1.91-.65,2.83-.74.4-.01,1.28-.05,1.64-.02-.45-.08.43-.08.68.05-.03-.01-.13-.01-.23-.02.48.07.98.29,1.34.41.01.01.02.01.02.01.02,0,.06.02.09.03s.07.02.09.03c-.02,0-.05-.01-.06-.01.06.02.1.05.16.08-7.09,14.81-17.19,28-29.08,39.28-3.72,1.1-7.45,2.1-11.24,2.83ZM74.69,105.81C97.92,42.25,162.42.92,228.23,0c.09-.01.17-.01.26,0,.09-.01.17-.01.26,0,65.81.91,130.31,42.25,153.54,105.8,8.01,20.58,11.75,42.81,11.06,64.88-.15,4.51-7.18,4.52-7.02,0,3.83-93.83-74.27-162.54-157.85-163.64-83.58,1.11-161.68,69.82-157.85,163.64.16,4.52-6.87,4.51-7.02,0-.7-22.07,3.05-44.3,11.06-64.88ZM218.33,297.83c-9.49-39.88-57.37-58.88-95.03-55.87-11.93-6.62-23.29-15.38-30.98-26.77-5.73-10.91-11.66-30.29-27.81-22.68-4.2-8.66-13.95-20.56-24.17-13-5.4-10.56-22.99-11.13-22.69,2.88,4.43,16.8,17.63,29.97,25.92,45.03-11.43-6.39-17.67-20.86-31.14-23.62-8.55-2.5-15.7,7.16-10.85,14.63,20.92,25.97,50.27,42.76,78.25,60.08,22.81,12.7,54.16,7.57,75.55,21.55,2.13,1.59,5.14,4.93,6.19,6.34,2.03,2.67,3.85,5.5,5.48,8.44,2.18,3.9,8.4.4,6.06-3.55-6.36-12.88-17.98-22.23-32.19-24.85-16.89-5.06-34.85-5.56-51.57-10.89-29.42-17.24-60.93-34.74-82.19-61.89.01.18-.06-.16-.1-.41-.05-.14.03-.52.03-.76,0,.06,0,.1.01.16,2.85-6.89,14.38,4.01,17.2,7.2,6.85,7.31,14.55,14.06,23.91,17.95-5.33,17.81,28.95,17.09,39.86,23.96,12.05,4.35,24.4,7.89,36.3,12.67,1.72.66,3.94-.74,4.33-2.45,1.72-6.48-24.35-10.92-29.66-13.81-10.86-3.53-21.36-8.01-32.47-10.78-4.12-1.1-16.63-3.16-10.25-9.24-.16.08-.18.03,0,0h.01s.01-.01.01-.01c.01,0,.02-.01.02-.01,16.23-2.78,31.58,5.37,47.08,8.76,13.56,3.78,29.81.49,42.44,2.58,22.97,3.81,46.71,15.38,60.04,35.05,6.11,9.56,5.45,22.48,12.02,31.59,10.97,2.7.6-13.48.4-18.27ZM7.73,211.07s.1-.09.19-.16c-.05.03-.11.09-.19.16ZM8.83,210.56c.17-.05.34-.09.41-.06-.14.02-.27.05-.41.06ZM24.65,180.57s-.02.02,0-.02v.02ZM58.77,230.67c-1.5.09-2.98.29-4.36.74-7.71-12.39-15.79-24.55-23.66-36.84-2.36-4.4-6.44-8.98-6-14.22,0-.01.01-.02.02-.05h0s.01-.02.01-.02c.83-1.68,3.57-2.28,4.78-1.57,2.5,1.35,4.23,3.83,5.97,5.97,9.77,15.58,17.55,32.38,30.28,45.99-2.35-.13-4.7-.15-7.04,0ZM76.31,232.02c-13.23-13.77-23.13-29.99-31.96-46.79.34-.35.75-.6,1.2-.76-.06.01-.15.05-.22.07.13-.07.23-.11.29-.1,0,0-.01,0-.01.01,1.08-.39,2.35-.24,3.41.22-.48-.25.18,0,.32.07-.01-.01-.02-.01-.05-.01.66.3,1.27.66,1.86,1.08,12.11,14.93,18.06,34.19,32.06,47.95-2.28-.65-4.56-1.26-6.89-1.73ZM96.96,237.9c-11.89-11.27-21.99-24.47-29.08-39.28.06-.03.1-.06.16-.08-.01,0-.03.01-.06.01.02-.01.06-.02.09-.03s.07-.03.09-.03c0,0,.01,0,.02-.01.35-.13.86-.34,1.34-.41-.1.01-.19.01-.23.02.25-.13,1.13-.13.68-.05.37-.02,1.24.01,1.64.02.92.09,1.99.42,2.83.74,1.14.48,2,1.28,2.76,2.26-.06-.09-.07-.13-.07-.14.03,0,.18.19.26.31,6.84,15.7,16.16,29.93,30.79,39.5-3.79-.73-7.52-1.73-11.24-2.83Z"></path><path class="cls-2" d="M244.21,55.45v-19.31c.07-3.71-4.2-3.69-6.85-3.51-3.25.06-6.09.03-8.6,0h-.53c-2.51.03-5.35.06-8.6,0-2.65-.17-6.92-.19-6.85,3.51v19.31c-28.2.33-22.29-5.1-22.82,26.25-.17,2.65-.19,6.92,3.51,6.85h19.31v19.31c0,1.94,1.57,3.51,3.51,3.51.23-.01,5.77-.01,11.94-.01h.53c6.16,0,11.71,0,11.94.01,1.94,0,3.51-1.57,3.51-3.51v-19.31h19.31c3.71.07,3.69-4.2,3.51-6.85-.54-31.35,5.38-25.92-22.82-26.25ZM260.18,81.7c-27.06.41-22.64-4.96-22.82,22.82h-17.73c-.18-27.79,4.23-22.41-22.82-22.82v-18.26c27.79-.18,22.41,4.23,22.82-22.82h17.73c.41,27.06-4.96,22.64,22.82,22.82v18.26Z"></path></g></g></svg></g></g></svg></g><g id="dark-icon"><svg xmlns="http://www.w3.org/2000/svg" version="1.1" xmlns:xlink="http://www.w3.org/1999/xlink" width="1000" height="1000"><g><g transform="matrix(2.1882316899713343,0,0,2.1882316899713343,-5.684341886080802e-14,153.65762926978707)"><svg xmlns="http://www.w3.org/2000/svg" id="Layer_2" viewBox="0 0 456.99 316.55" width="456.99" height="316.55"><defs><style>.cls-1{fill:#cca162;}.cls-1,.cls-2{stroke-width:0px;}.cls-2{fill:#fffcf8;}</style></defs><g id="Logos"><g id="Arca-lui-Noe_Brandmark-ColorrL"><path id="Brandmark" class="cls-2" d="M216.95,130.91c-8.15-2.02-16.75.54-24.85,1.89-11.24-28.56-45.5-22.24-60.29-.22-16.09,18.56-32.19,55.21,3.02,62.35-1,1.97-2.24,3.87-3.64,5.67-.03.05-.07.09-.1.13-4.51,5.71-10.75,10.37-16.67,12.87-5.04.78-4.09,8.21,1,7.08,12.04-4.74,22.77-14.23,27.33-26.5,18.98-4.55,23.7-30.82,7.66-41.86-2.44-1.73-6.69-4.63-8.88-1.08-.79,1.49-.54,4.04,1.27,4.8,1.37.62,2.82,1.31,3.97,2.27,12.77,9.69,5.51,31.31-12.2,29.57-24.84-6.36-11.02-32.98.06-47.54,9.03-13.41,27.47-27.31,43.08-15.71,0,0,0-.01-.01-.02,1.37.99,3.62,3.42,4.15,4.15,3.83,3.09,2.86,12.18,8.84,11.56,7.69-1.63,15.63-3.67,23.53-2.92,2.23.98,2.9,3.87,3.32,6.07.01,0,.03.25.05.34.27,1.99-.03,3.95-.07,5.92-.23,2.83-2.83,9.91-5.8,13.21-.23.41-3.63,4.12-5.22,5.16,0,.06-.21.21-.29.27-3.74,2.82-8.13,4.82-12.78,5.51-2.68.19-6.93-.03-6.84,3.72,1.76,5.68.4,35.07,6.56,34.08,1.75-.08,3.71-1.55,3.51-3.51-.91-9.1-1.81-18.2-2.73-27.31,21.21-1.23,43.51-34.87,22.99-49.96ZM344.98,216.06c-.62-1.92-2.25-2.68-4.11-2.48-13.13,2.69-31.45-9.03-29.83-24.01,3.43-12.01,16.7-24.85,7.86-37.61,4.15-8.83,6.17-26.82-2.6-32.92-5.98,1.4-10.15,7.91-15.33,11.26-10.73-10.97-24.22,1.84-35.95-.66-14.24-11.35-24.14,4.12-29.74,16.24-7.36,18.92,15.14,35.52,13.39,52.56-8.24,19.92,17.63,10.04,2.01-20.12-6.21-11.08-15.17-25.05-5.17-36.75,2.6-3.17,4.68-7.49,8.6-9.12.86-.08,1.85.21,2.59.65,10.69,9.06,22.57-.26,34.17-.17.99.17,2.03.32,2.94.78-.06-.03-.14-.09-.23-.16,1.32.62,2.68,1.46,3.12,2.97,3.98,7.82,13.08-5.98,17.57-8.19,1.18,3.88,1.37,8.03.88,12.05-.14,1.92-1.73,7.65-3.55,10.4-1.57,3.78,2.13,4.71,3.06,8.83,0,.03.01.06.02.08-.01.01-.01.02,0,.02.42,1.93.23,4.56-1.38,8.48-.06.11-.11.27-.16.38-2.52,5.96-6.38,11.31-8.51,17.4-3.57,14.95,8.64,30.17,22.93,33.6,4.66.65,18.06,4.31,17.41-3.5ZM254.73,132.42c.14,0,.25.01.3.05-.1-.01-.19-.03-.3-.05ZM239.06,316.1c6.56-9.11,5.91-22.02,12.02-31.59,13.33-19.66,37.07-31.23,60.04-35.05,12.63-2.09,28.88,1.2,42.44-2.58,15.51-3.39,30.86-11.55,47.08-8.76,0,0,.01.01.02.01h.02c.18.05.16.09,0,.01,6.38,6.08-6.13,8.15-10.25,9.24-11.1,2.77-21.6,7.26-32.47,10.78-5.31,2.89-31.38,7.33-29.66,13.81.39,1.71,2.6,3.12,4.33,2.45,11.9-4.78,24.25-8.32,36.3-12.67,10.91-6.87,45.19-6.15,39.86-23.96,9.36-3.89,17.06-10.64,23.91-17.95,2.82-3.2,14.34-14.09,17.2-7.2.01-.06.01-.1.01-.16,0,.24.08.63.03.76-.05.25-.11.59-.1.41-21.26,27.15-52.77,44.64-82.19,61.89-16.72,5.33-34.68,5.83-51.57,10.89-14.21,2.62-25.84,11.97-32.19,24.85-2.34,3.95,3.88,7.45,6.06,3.55,1.63-2.94,3.45-5.77,5.48-8.44,1.05-1.42,4.05-4.76,6.19-6.34,21.39-13.98,52.73-8.84,75.55-21.55,27.98-17.32,57.33-34.11,78.25-60.08,4.85-7.47-2.31-17.13-10.85-14.63-13.48,2.76-19.71,17.23-31.14,23.62,8.28-15.06,21.49-28.23,25.92-45.03.31-14-17.29-13.43-22.69-2.88-10.22-7.57-19.97,4.34-24.17,13-16.15-7.61-22.08,11.77-27.81,22.68-7.69,11.39-19.06,20.15-30.98,26.77-37.66-3.01-85.53,15.99-95.03,55.87-.21,4.79-10.57,20.97.4,18.27ZM449.06,210.91c.09.07.17.13.19.16-.08-.07-.15-.13-.19-.16ZM447.75,210.5c.07-.03.24.01.41.06-.14-.01-.27-.03-.41-.06ZM432.34,180.54s.02.05,0,.02v-.02ZM391.18,230.67c12.72-13.61,20.51-30.41,30.28-45.99,1.73-2.13,3.47-4.62,5.97-5.97,1.21-.71,3.95-.1,4.78,1.57h.01v.02s.02.03.02.05c.43,5.24-3.64,9.81-6,14.22-7.86,12.29-15.94,24.44-23.66,36.84-1.38-.46-2.86-.65-4.36-.74-2.34-.15-4.69-.13-7.04,0ZM373.79,233.76c13.99-13.76,19.95-33.03,32.06-47.95.59-.42,1.2-.79,1.86-1.08-.02,0-.03,0-.05.01.14-.07.8-.32.32-.07,1.06-.46,2.33-.6,3.41-.22,0-.01-.01-.01-.01-.01.06-.01.16.03.29.1-.07-.02-.16-.06-.22-.07.44.16.86.41,1.2.76-8.83,16.8-18.74,33.01-31.96,46.79-2.33.48-4.61,1.08-6.89,1.73ZM348.79,240.73c14.63-9.56,23.95-23.79,30.79-39.5.08-.11.23-.31.26-.31,0,.01-.01.05-.07.14.76-.98,1.62-1.78,2.76-2.26.84-.32,1.91-.65,2.83-.74.4-.01,1.28-.05,1.64-.02-.45-.08.43-.08.68.05-.03-.01-.13-.01-.23-.02.48.07.98.29,1.34.41.01.01.02.01.02.01.02,0,.06.02.09.03s.07.02.09.03c-.02,0-.05-.01-.06-.01.06.02.1.05.16.08-7.09,14.81-17.19,28-29.08,39.28-3.72,1.1-7.45,2.1-11.24,2.83ZM74.69,105.81C97.92,42.25,162.42.92,228.23,0c.09-.01.17-.01.26,0,.09-.01.17-.01.26,0,65.81.91,130.31,42.25,153.54,105.8,8.01,20.58,11.75,42.81,11.06,64.88-.15,4.51-7.18,4.52-7.02,0,3.83-93.83-74.27-162.54-157.85-163.64-83.58,1.11-161.68,69.82-157.85,163.64.16,4.52-6.87,4.51-7.02,0-.7-22.07,3.05-44.3,11.06-64.88ZM218.33,297.83c-9.49-39.88-57.37-58.88-95.03-55.87-11.93-6.62-23.29-15.38-30.98-26.77-5.73-10.91-11.66-30.29-27.81-22.68-4.2-8.66-13.95-20.56-24.17-13-5.4-10.56-22.99-11.13-22.69,2.88,4.43,16.8,17.63,29.97,25.92,45.03-11.43-6.39-17.67-20.86-31.14-23.62-8.55-2.5-15.7,7.16-10.85,14.63,20.92,25.97,50.27,42.76,78.25,60.08,22.81,12.7,54.16,7.57,75.55,21.55,2.13,1.59,5.14,4.93,6.19,6.34,2.03,2.67,3.85,5.5,5.48,8.44,2.18,3.9,8.4.4,6.06-3.55-6.36-12.88-17.98-22.23-32.19-24.85-16.89-5.06-34.85-5.56-51.57-10.89-29.42-17.24-60.93-34.74-82.19-61.89.01.18-.06-.16-.1-.41-.05-.14.03-.52.03-.76,0,.06,0,.1.01.16,2.85-6.89,14.38,4.01,17.2,7.2,6.85,7.31,14.55,14.06,23.91,17.95-5.33,17.81,28.95,17.09,39.86,23.96,12.05,4.35,24.4,7.89,36.3,12.67,1.72.66,3.94-.74,4.33-2.45,1.72-6.48-24.35-10.92-29.66-13.81-10.86-3.53-21.36-8.01-32.47-10.78-4.12-1.1-16.63-3.16-10.25-9.24-.16.08-.18.03,0,0h.01s.01-.01.01-.01c.01,0,.02-.01.02-.01,16.23-2.78,31.58,5.37,47.08,8.76,13.56,3.78,29.81.49,42.44,2.58,22.97,3.81,46.71,15.38,60.04,35.05,6.11,9.56,5.45,22.48,12.02,31.59,10.97,2.7.6-13.48.4-18.27ZM7.73,211.07s.1-.09.19-.16c-.05.03-.11.09-.19.16ZM8.83,210.56c.17-.05.34-.09.41-.06-.14.02-.27.05-.41.06ZM24.65,180.57s-.02.02,0-.02v.02ZM58.77,230.67c-1.5.09-2.98.29-4.36.74-7.71-12.39-15.79-24.55-23.66-36.84-2.36-4.4-6.44-8.98-6-14.22,0-.01.01-.02.02-.05h0s.01-.02.01-.02c.83-1.68,3.57-2.28,4.78-1.57,2.5,1.35,4.23,3.83,5.97,5.97,9.77,15.58,17.55,32.38,30.28,45.99-2.35-.13-4.7-.15-7.04,0ZM76.31,232.02c-13.23-13.77-23.13-29.99-31.96-46.79.34-.35.75-.6,1.2-.76-.06.01-.15.05-.22.07.13-.07.23-.11.29-.1,0,0-.01,0-.01.01,1.08-.39,2.35-.24,3.41.22-.48-.25.18,0,.32.07-.01-.01-.02-.01-.05-.01.66.3,1.27.66,1.86,1.08,12.11,14.93,18.06,34.19,32.06,47.95-2.28-.65-4.56-1.26-6.89-1.73ZM96.96,237.9c-11.89-11.27-21.99-24.47-29.08-39.28.06-.03.1-.06.16-.08-.01,0-.03.01-.06.01.02-.01.06-.02.09-.03s.07-.03.09-.03c0,0,.01,0,.02-.01.35-.13.86-.34,1.34-.41-.1.01-.19.01-.23.02.25-.13,1.13-.13.68-.05.37-.02,1.24.01,1.64.02.92.09,1.99.42,2.83.74,1.14.48,2,1.28,2.76,2.26-.06-.09-.07-.13-.07-.14.03,0,.18.19.26.31,6.84,15.7,16.16,29.93,30.79,39.5-3.79-.73-7.52-1.73-11.24-2.83Z"></path><path class="cls-1" d="M244.21,55.45v-19.31c.07-3.71-4.2-3.69-6.85-3.51-3.25.06-6.09.03-8.6,0h-.53c-2.51.03-5.35.06-8.6,0-2.65-.17-6.92-.19-6.85,3.51v19.31c-28.2.33-22.29-5.1-22.82,26.25-.17,2.65-.19,6.92,3.51,6.85h19.31v19.31c0,1.94,1.57,3.51,3.51,3.51.23-.01,5.77-.01,11.94-.01h.53c6.16,0,11.71,0,11.94.01,1.94,0,3.51-1.57,3.51-3.51v-19.31h19.31c3.71.07,3.69-4.2,3.51-6.85-.54-31.35,5.38-25.92-22.82-26.25ZM260.18,81.7c-27.06.41-22.64-4.96-22.82,22.82h-17.73c-.18-27.79,4.23-22.41-22.82-22.82v-18.26c27.79-.18,22.41,4.23,22.82-22.82h17.73c.41,27.06-4.96,22.64,22.82,22.82v18.26Z"></path></g></g></svg></g></g></svg></g></svg>