<svg width="461" height="440" viewBox="0 0 461 440" fill="none" xmlns="http://www.w3.org/2000/svg">
<path d="M197.775 30.4864C185.775 11.9531 167.041 -2.74024 144.041 0.433092C113.228 7.29975 101.561 33.7397 98.4948 62.4863C97.8015 68.873 97.0281 71.673 97.4948 78.4863C98.7348 96.6863 103.335 113.286 112.428 129.153C123.095 147.78 146.415 167.033 169.375 162.993C191.775 159.06 205.575 142.193 211.641 121.153C220.228 91.4063 214.588 56.433 197.775 30.4864Z" fill="#084466"/>
<path d="M358.134 46.4864C350.908 20.7664 334.014 -3.42023 304.041 0.40643C265.455 7.63309 244.095 51.4197 244.041 87.8196V97.1529C244.081 124.806 257.055 155.94 286.708 162.46C292.148 163.66 297.148 164.219 302.708 163.419C351.854 156.353 369.814 88.033 358.134 46.4864Z" fill="#084466"/>
<path d="M109.375 195.819C109.815 157.753 84.3748 107.646 41.3749 107.273C14.5083 109.713 0.348277 129.86 0.041611 155.82C-0.0650555 165.14 -0.131722 171.939 2.04161 181.153C9.69493 213.473 36.3882 245.499 72.0415 243.766C96.2415 242.593 109.121 217.486 109.375 195.819Z" fill="#084466"/>
<path d="M428.041 108.7C422.321 107.246 411.308 107.553 405.374 108.7C375.134 117.286 351.081 154.126 350.908 185.153V205.153C354.094 225.886 368.841 243.299 390.708 243.806C431.401 244.739 459.614 201.073 460.041 163.82C460.281 141.926 451.534 115.553 428.041 108.7Z" fill="#084466"/>
<path d="M288.028 197.273C270.775 180.886 243.655 172.166 220.041 175.046C197.828 178.406 182.028 183.793 165.428 199.939L130.655 242.486L81.7748 289.153C64.6815 309.099 57.0682 329.673 57.3749 355.819C57.8815 398.952 91.2815 439.606 136.041 439.819C152.001 439.899 156.055 440.112 172.041 436.592C188.681 432.912 206.961 426.686 224.041 426.486C240.148 426.299 249.561 427.112 265.375 430.792C280.414 434.312 295.081 439.632 310.708 439.819C325.801 439.992 335.028 439.739 349.374 433.886C377.761 422.286 399.668 392.086 400.041 361.152C400.214 346.233 400.228 338.313 395.348 323.819C383.161 287.579 350.134 268.926 325.494 242.486L288.028 197.273Z" fill="#084466"/>
</svg>
