<svg width="555" height="358" viewBox="0 0 555 358" fill="none" xmlns="http://www.w3.org/2000/svg">
<g clip-path="url(#clip0_21_243)">
<path fill-rule="evenodd" clip-rule="evenodd" d="M137.42 448.524C36.2939 448.524 9.23686 397.568 13.6336 349.381C18.0304 301.194 148 256 183.5 220.5C274.5 147.5 228 90.5 308 54.5C425 22.5958 564.399 22.5958 564.399 22.5958V262.7V448.524C564.399 448.524 238.546 448.524 137.42 448.524Z" fill="#CCA162"/>
<path fill-rule="evenodd" clip-rule="evenodd" d="M127.211 460.51C14.997 460.51 -3.17282 408.387 1.70607 357.668C6.58494 306.95 49.0317 277.697 116.032 249.197C215.032 211.197 205.532 103.197 283.032 52.6973C429.032 -15.3027 599.676 16.3649 599.676 16.3649V264.922V460.51C599.676 460.51 239.426 460.51 127.211 460.51Z" stroke="#CCA162" stroke-width="4" stroke-linecap="round" stroke-dasharray="190 190"/>
</g>
<defs>
<clipPath id="clip0_21_243">
<rect width="555" height="358" fill="white" transform="matrix(1 0 0 -1 0 358)"/>
</clipPath>
</defs>
</svg>
