<svg width="182" height="34" viewBox="0 0 182 34" fill="none" xmlns="http://www.w3.org/2000/svg">
<g clip-path="url(#clip0_1_16)">
<path d="M66.1704 5.46594C65.9785 5.04073 65.7477 4.73563 65.4745 4.55061C65.2014 4.3656 64.8957 4.27472 64.5576 4.27472C64.2194 4.27472 63.891 4.3656 63.6211 4.55061C63.3479 4.73563 63.1171 5.04073 62.9252 5.46594L57.0983 18.3551C56.9519 18.6927 56.8999 18.9978 56.9422 19.2704C56.9877 19.5431 57.1145 19.7605 57.3291 19.9196C57.5437 20.0819 57.8266 20.163 58.1778 20.163C58.5615 20.163 58.8542 20.0656 59.0623 19.8774C59.2671 19.6859 59.4655 19.3775 59.6573 18.9523L60.7434 16.3979H68.3327L69.435 18.9523C69.6106 19.3646 69.8122 19.6697 70.0431 19.8677C70.2707 20.0657 70.5926 20.1663 71.0023 20.1663C71.3405 20.1663 71.6136 20.0884 71.8185 19.9358C72.0234 19.78 72.1502 19.5658 72.1924 19.2867C72.238 19.0075 72.1762 18.6992 72.0169 18.3616L66.1671 5.47243L66.1704 5.46594ZM61.7221 14.1485L64.5153 7.5173H64.5608L67.3735 14.1485H61.7221Z" fill="#084466"/>
<path d="M81.0142 9.22463C80.8288 9.03962 80.5849 8.96497 80.276 8.99418C79.2745 9.08182 78.4746 9.35447 77.8698 9.80888C77.4341 10.1367 77.1057 10.5781 76.8748 11.1267V10.4256C76.8748 9.97117 76.7578 9.62387 76.5204 9.39017C76.2863 9.15647 75.9546 9.03638 75.5254 9.03638C75.0962 9.03638 74.7677 9.15323 74.5336 9.39017C74.2995 9.62387 74.1792 9.97117 74.1792 10.4256V18.7544C74.1792 19.2088 74.2995 19.5593 74.5434 19.7995C74.7873 20.043 75.1352 20.1631 75.5904 20.1631C76.0456 20.1631 76.3936 20.043 76.6277 19.7995C76.8618 19.5561 76.9821 19.2088 76.9821 18.7544V14.194C76.9821 13.3566 77.2097 12.7074 77.665 12.2433C78.1202 11.7791 78.7965 11.5064 79.6972 11.4156L80.1817 11.3701C80.5784 11.3247 80.8776 11.1916 81.0759 10.9612C81.2743 10.7339 81.3588 10.4353 81.3296 10.0685C81.3003 9.68554 81.193 9.40316 81.0109 9.22139L81.0142 9.22463Z" fill="#084466"/>
<path d="M90.8277 9.85105C90.3269 9.5427 89.7936 9.32198 89.2278 9.1889C88.6621 9.05582 88.1353 8.99091 87.6508 8.99091C86.7989 8.99091 86.025 9.12074 85.3324 9.37716C84.6398 9.63358 84.0512 10.0004 83.5667 10.4775C83.0822 10.9546 82.7083 11.5356 82.4514 12.2173C82.1945 12.8989 82.0645 13.6746 82.0645 14.5413C82.0645 15.687 82.2921 16.6868 82.7473 17.5372C83.2025 18.3908 83.8496 19.0465 84.6885 19.5106C85.5275 19.9748 86.5127 20.2052 87.6475 20.2052C88.132 20.2052 88.6491 20.1403 89.1921 20.0072C89.7351 19.8742 90.2521 19.6632 90.7366 19.3678C90.9577 19.2347 91.1073 19.0659 91.1886 18.8615C91.2699 18.657 91.2959 18.446 91.2666 18.2318C91.2374 18.0175 91.1561 17.8358 91.0228 17.68C90.8894 17.5242 90.7236 17.4268 90.5252 17.3814C90.3269 17.3359 90.1025 17.3814 89.8522 17.5144C89.514 17.7059 89.1791 17.8455 88.8474 17.9331C88.5157 18.0208 88.1971 18.0662 87.8882 18.0662C86.9322 18.0662 86.1908 17.7546 85.6705 17.1314C85.147 16.5082 84.8869 15.6513 84.8869 14.564C84.8869 14.0057 84.9519 13.5123 85.0852 13.0871C85.2186 12.6619 85.4137 12.3049 85.6705 12.0193C85.9274 11.7336 86.2396 11.5129 86.607 11.3571C86.9744 11.2013 87.4004 11.1267 87.8882 11.1267C88.1971 11.1267 88.5222 11.1753 88.8604 11.2695C89.1986 11.3636 89.5302 11.5097 89.8554 11.6979C90.1058 11.831 90.3334 11.8797 90.5383 11.8407C90.7431 11.805 90.9155 11.7077 91.0585 11.5551C91.1983 11.3993 91.2894 11.2175 91.3349 11.0033C91.3804 10.7891 91.3642 10.5814 91.2894 10.3769C91.2146 10.1724 91.0618 9.99386 90.8244 9.8478L90.8277 9.85105Z" fill="#084466"/>
<path d="M100.241 9.47783C99.5583 9.15649 98.6837 8.9942 97.6269 8.9942C97.1099 8.9942 96.5408 9.05263 95.9165 9.16948C95.2922 9.28633 94.6386 9.48432 93.9622 9.76346C93.6826 9.86733 93.4843 10.0231 93.3672 10.2374C93.2501 10.4516 93.1916 10.6658 93.1916 10.8865C93.1916 11.1072 93.2501 11.3085 93.3672 11.4935C93.4843 11.6785 93.6501 11.7986 93.8647 11.857C94.0793 11.9154 94.3232 11.8797 94.6028 11.7467C95.1459 11.4967 95.6661 11.3215 96.1604 11.2176C96.6546 11.1137 97.1131 11.0618 97.5391 11.0618C98.3032 11.0618 98.8495 11.2241 99.1714 11.5454C99.4933 11.87 99.6559 12.3991 99.6559 13.1326V13.5968H98.882C97.3212 13.5968 96.0791 13.7006 95.1524 13.9051C94.2256 14.1096 93.5558 14.4439 93.1428 14.9081C92.7299 15.3722 92.525 15.9987 92.525 16.7907C92.525 17.4366 92.6974 18.0176 93.0453 18.5304C93.39 19.0465 93.868 19.4522 94.4793 19.7541C95.0906 20.056 95.7864 20.2053 96.5636 20.2053C97.1521 20.2053 97.6756 20.1014 98.1309 19.8969C98.5861 19.6924 98.9665 19.4003 99.2689 19.027C99.4478 18.8031 99.5909 18.5499 99.6982 18.2773V18.7511C99.6982 19.2056 99.812 19.5561 100.04 19.7963C100.267 20.0397 100.589 20.1598 100.999 20.1598C101.409 20.1598 101.727 20.0397 101.948 19.7963C102.169 19.5529 102.28 19.2056 102.28 18.7511V13.4637C102.28 12.4348 102.111 11.5941 101.773 10.9417C101.435 10.2893 100.924 9.79917 100.238 9.47783H100.241ZM99.6559 15.6676C99.6559 16.1805 99.5453 16.6381 99.3242 17.0341C99.1031 17.4301 98.804 17.7417 98.43 17.9689C98.0561 18.1961 97.6236 18.3097 97.1391 18.3097C96.5343 18.3097 96.0661 18.1539 95.7246 17.8456C95.3865 17.5372 95.2174 17.1412 95.2174 16.6543C95.2174 16.2713 95.3312 15.976 95.5588 15.7617C95.7864 15.5475 96.1734 15.3982 96.7164 15.3106C97.2594 15.2229 97.9878 15.1775 98.9015 15.1775H99.6526V15.6611L99.6559 15.6676Z" fill="#084466"/>
<path d="M116.122 17.8942C116.018 17.9104 115.917 17.9202 115.813 17.9267C115.709 17.9331 115.599 17.9364 115.482 17.9364C114.952 17.9364 114.545 17.7741 114.256 17.4528C113.97 17.1282 113.827 16.6316 113.827 15.9532V5.66393C113.827 5.20952 113.706 4.86221 113.462 4.62851C113.219 4.39481 112.877 4.27472 112.435 4.27472C111.993 4.27472 111.654 4.39157 111.42 4.62851C111.186 4.86221 111.066 5.20952 111.066 5.66393V16.0863C111.066 17.4365 111.375 18.4622 111.993 19.1601C112.61 19.8579 113.531 20.2052 114.753 20.2052C114.916 20.2052 115.075 20.1987 115.238 20.1825C115.4 20.1663 115.553 20.1533 115.703 20.1371C116.041 20.0916 116.285 19.9683 116.431 19.7638C116.577 19.5593 116.652 19.2704 116.652 18.9036C116.652 18.4784 116.617 18.1961 116.542 18.0565C116.467 17.9169 116.327 17.8617 116.122 17.8909V17.8942Z" fill="#084466"/>
<path d="M126.628 9.03639C126.186 9.03639 125.848 9.14999 125.614 9.3772C125.38 9.60441 125.259 9.95496 125.259 10.4224V15.2684C125.259 16.1058 125.025 16.7777 124.554 17.284C124.082 17.7904 123.481 18.0435 122.743 18.0435C122.066 18.0435 121.572 17.8585 121.263 17.4918C120.954 17.125 120.798 16.5602 120.798 15.7942V10.4191C120.798 9.94846 120.678 9.60116 120.434 9.37395C120.19 9.14675 119.849 9.03314 119.406 9.03314C118.964 9.03314 118.626 9.14675 118.392 9.37395C118.158 9.60116 118.037 9.95171 118.037 10.4191V15.752C118.037 16.7355 118.181 17.5599 118.467 18.2188C118.753 18.881 119.192 19.3743 119.78 19.7054C120.369 20.0365 121.114 20.202 122.011 20.202C122.908 20.202 123.604 19.9878 124.229 19.5626C124.674 19.2575 125.035 18.8582 125.321 18.3681V18.7479C125.321 19.2023 125.438 19.5529 125.676 19.793C125.91 20.0365 126.241 20.1566 126.671 20.1566C127.568 20.1566 128.017 19.6859 128.017 18.7479V10.4191C128.017 9.94846 127.896 9.60116 127.653 9.37395C127.409 9.14675 127.067 9.03314 126.625 9.03314L126.628 9.03639Z" fill="#084466"/>
<path d="M132.257 9.05908C131.815 9.05908 131.477 9.18892 131.242 9.44534C131.008 9.70176 130.888 10.075 130.888 10.5587V18.644C130.888 19.1146 131.005 19.4814 131.242 19.7443C131.477 20.0072 131.818 20.1403 132.257 20.1403C132.696 20.1403 133.06 20.0072 133.294 19.7443C133.528 19.4814 133.649 19.1114 133.649 18.644V10.5587C133.649 10.075 133.528 9.70176 133.284 9.44534C133.041 9.18892 132.699 9.05908 132.257 9.05908Z" fill="#084466"/>
<path d="M132.257 4.10272C131.743 4.10272 131.34 4.22931 131.054 4.47599C130.768 4.72267 130.625 5.08621 130.625 5.55685C130.625 6.0275 130.768 6.36831 131.054 6.62473C131.34 6.88115 131.743 7.01098 132.257 7.01098C132.771 7.01098 133.19 6.88115 133.47 6.62473C133.749 6.36831 133.889 6.01127 133.889 5.55685C133.889 5.10244 133.749 4.72592 133.47 4.47599C133.19 4.22606 132.787 4.10272 132.257 4.10272Z" fill="#084466"/>
<path d="M154.573 4.27797C154.147 4.27797 153.819 4.39481 153.591 4.63176C153.363 4.86546 153.25 5.19653 153.25 5.62174V15.3008L145.371 5.09267C145.137 4.80054 144.932 4.58956 144.763 4.46298C144.594 4.33964 144.34 4.27472 144.002 4.27472C143.634 4.27472 143.335 4.39481 143.108 4.63825C142.88 4.88169 142.766 5.22899 142.766 5.68341V18.7933C142.766 19.2347 142.88 19.5723 143.108 19.806C143.335 20.0397 143.664 20.1598 144.09 20.1598C144.516 20.1598 144.841 20.0429 145.062 19.806C145.283 19.5723 145.394 19.2315 145.394 18.7933V9.08828L153.272 19.3224C153.507 19.6177 153.724 19.8287 153.923 19.9618C154.121 20.0949 154.391 20.1598 154.729 20.1598C155.067 20.1598 155.363 20.0429 155.568 19.806C155.773 19.5723 155.877 19.2477 155.877 18.8355V5.62174C155.877 5.19653 155.766 4.86546 155.545 4.63176C155.324 4.39806 155.002 4.27797 154.573 4.27797Z" fill="#084466"/>
<path d="M166.845 9.67582C166.019 9.22141 165.05 8.9942 163.931 8.9942C163.092 8.9942 162.335 9.12403 161.658 9.38045C160.982 9.63687 160.4 10.0134 159.916 10.5035C159.431 10.9969 159.057 11.5844 158.8 12.266C158.543 12.9476 158.413 13.7234 158.413 14.59C158.413 15.7358 158.641 16.7322 159.096 17.5762C159.551 18.4201 160.192 19.0725 161.018 19.5269C161.841 19.9813 162.813 20.2085 163.931 20.2085C164.77 20.2085 165.528 20.0787 166.204 19.8223C166.881 19.5658 167.463 19.1893 167.947 18.6992C168.432 18.2058 168.806 17.6151 169.062 16.927C169.319 16.2356 169.449 15.4566 169.449 14.59C169.449 13.4442 169.222 12.4542 168.767 11.6168C168.311 10.7794 167.671 10.1335 166.845 9.67907V9.67582ZM166.328 16.5407C166.1 17.0633 165.778 17.4561 165.369 17.719C164.956 17.9819 164.478 18.115 163.935 18.115C163.109 18.115 162.449 17.8164 161.948 17.2224C161.447 16.6284 161.197 15.7488 161.197 14.59C161.197 13.811 161.31 13.1618 161.538 12.6393C161.766 12.1167 162.088 11.7272 162.497 11.4708C162.91 11.2143 163.388 11.0845 163.931 11.0845C164.754 11.0845 165.417 11.3734 165.918 11.9544C166.419 12.5354 166.669 13.4118 166.669 14.5868C166.669 15.3658 166.555 16.0149 166.328 16.5375V16.5407Z" fill="#084466"/>
<path d="M181.116 17.4983C180.976 17.3522 180.788 17.2678 180.554 17.2451C180.32 17.2224 180.046 17.3003 179.738 17.4755C179.312 17.7092 178.86 17.8748 178.382 17.9721C177.904 18.0695 177.471 18.115 177.091 18.115C175.988 18.115 175.153 17.8164 174.587 17.2224C174.138 16.7517 173.868 16.0831 173.777 15.2294H180.45C180.788 15.2294 181.048 15.1613 181.233 15.0217C181.419 14.8821 181.51 14.6809 181.51 14.4147C181.51 13.5773 181.396 12.8243 181.168 12.1556C180.941 11.487 180.609 10.919 180.173 10.4483C179.741 9.97769 179.217 9.6174 178.606 9.36747C177.995 9.11754 177.309 8.9942 176.541 8.9942C175.497 8.9942 174.564 9.23439 173.748 9.71153C172.932 10.1887 172.291 10.8476 171.83 11.685C171.365 12.5224 171.134 13.4994 171.134 14.616C171.134 15.7325 171.371 16.7517 171.852 17.5891C172.33 18.4266 173.01 19.0725 173.894 19.5269C174.776 19.9813 175.829 20.2085 177.052 20.2085C177.627 20.2085 178.248 20.1306 178.918 19.9781C179.588 19.8223 180.18 19.5853 180.694 19.2607C180.957 19.0985 181.146 18.9069 181.256 18.6895C181.367 18.4688 181.406 18.2513 181.376 18.0403C181.347 17.8261 181.263 17.6476 181.123 17.5015L181.116 17.4983ZM174.073 12.5062C174.301 11.9836 174.632 11.5811 175.068 11.2955C175.501 11.0099 176.027 10.867 176.645 10.867C177.205 10.867 177.673 10.9871 178.047 11.2306C178.421 11.474 178.71 11.8213 178.908 12.2757C179.074 12.6522 179.165 13.1132 179.195 13.6422H173.781C173.833 13.2235 173.927 12.8437 174.073 12.5062Z" fill="#084466"/>
<path d="M61.036 32.9841C60.9905 32.9484 60.9352 32.9257 60.8702 32.9224C60.8051 32.9192 60.7304 32.9419 60.6523 32.9971C60.4767 33.1302 60.2816 33.2275 60.0735 33.2892C59.8654 33.3541 59.6443 33.3833 59.4167 33.3833C59.0395 33.3833 58.7176 33.3022 58.4574 33.1431C58.1941 32.9841 57.9957 32.7504 57.8624 32.4453C57.7291 32.1402 57.6608 31.7702 57.6608 31.3385C57.6608 30.9068 57.7291 30.5335 57.8624 30.2316C57.9957 29.9298 58.1973 29.6993 58.4574 29.5403C58.7208 29.3812 59.0395 29.3001 59.4167 29.3001C59.6476 29.3001 59.8654 29.3293 60.067 29.391C60.2719 29.4526 60.4572 29.55 60.6296 29.6798C60.7076 29.735 60.7824 29.761 60.8507 29.7577C60.919 29.7577 60.9775 29.7318 61.023 29.6928C61.0685 29.6506 61.101 29.5987 61.1173 29.537C61.1336 29.4754 61.1303 29.4104 61.1075 29.3423C61.0815 29.2741 61.0328 29.2124 60.9515 29.1573C60.7564 29.0047 60.5222 28.8879 60.2491 28.8035C59.976 28.7191 59.6931 28.6769 59.4004 28.6769C59.0135 28.6769 58.6656 28.7386 58.3599 28.8619C58.0542 28.9852 57.7941 29.1605 57.5828 29.3942C57.3714 29.6279 57.2088 29.907 57.0983 30.2316C56.9844 30.5562 56.9292 30.923 56.9292 31.3287C56.9292 31.8708 57.03 32.3447 57.2283 32.7439C57.4267 33.1431 57.7096 33.4515 58.077 33.6657C58.4444 33.8799 58.8867 33.987 59.4004 33.987C59.7028 33.987 59.9955 33.9449 60.2719 33.8572C60.5483 33.7728 60.7889 33.643 60.9905 33.471C61.0588 33.4223 61.1043 33.3671 61.1238 33.3022C61.1433 33.2373 61.1433 33.1756 61.1271 33.1139C61.1108 33.0522 61.0783 33.0036 61.036 32.9679V32.9841Z" fill="#084466"/>
<path d="M65.4778 33.3476H63.1366V29.0728C63.1366 28.9592 63.1073 28.8748 63.0488 28.8164C62.9903 28.758 62.9057 28.7288 62.7919 28.7288C62.6781 28.7288 62.6001 28.758 62.5415 28.8164C62.483 28.8748 62.4537 28.9625 62.4537 29.0728V33.5813C62.4537 33.6884 62.483 33.776 62.5448 33.8377C62.6066 33.9026 62.6911 33.9318 62.7984 33.9318H65.4778C65.5818 33.9318 65.6566 33.9058 65.7086 33.8539C65.7607 33.802 65.7867 33.7273 65.7867 33.63C65.7867 33.5358 65.7607 33.4677 65.7086 33.4157C65.6566 33.367 65.5786 33.3411 65.4778 33.3411V33.3476Z" fill="#084466"/>
<path d="M67.1946 28.7061C67.0873 28.7061 67.0028 28.7353 66.9443 28.7937C66.8857 28.8521 66.8565 28.9398 66.8565 29.0566V33.6332C66.8565 33.7468 66.8857 33.8345 66.9443 33.8929C67.0028 33.9545 67.0873 33.9838 67.1946 33.9838C67.3117 33.9838 67.3995 33.9545 67.4548 33.8929C67.5101 33.8312 67.5393 33.7436 67.5393 33.6332V29.0566C67.5393 28.9398 67.5101 28.8521 67.4515 28.7937C67.393 28.7353 67.3085 28.7061 67.1946 28.7061Z" fill="#084466"/>
<path d="M73.0411 28.7061C72.9371 28.7061 72.859 28.7353 72.8005 28.7905C72.7452 28.8456 72.716 28.93 72.716 29.0371V32.7893L69.7797 28.9041C69.7244 28.8294 69.6757 28.7775 69.6334 28.7483C69.5879 28.719 69.5261 28.7028 69.4415 28.7028C69.3537 28.7028 69.2822 28.732 69.2269 28.7905C69.1717 28.8489 69.1456 28.9333 69.1456 29.0469V33.6527C69.1456 33.7566 69.1749 33.8377 69.2302 33.8961C69.2855 33.9546 69.3635 33.9838 69.461 33.9838C69.5651 33.9838 69.6431 33.9546 69.6952 33.8961C69.7504 33.8377 69.7765 33.7566 69.7765 33.6527V29.8746L72.7192 33.7793C72.7745 33.8539 72.8265 33.9059 72.8785 33.9383C72.9306 33.9708 72.9956 33.987 73.0736 33.987C73.1582 33.987 73.2232 33.9578 73.2752 33.8994C73.3273 33.841 73.3533 33.7598 73.3533 33.6559V29.0371C73.3533 28.93 73.3273 28.8489 73.272 28.7905C73.2167 28.7353 73.1387 28.7061 73.0379 28.7061H73.0411Z" fill="#084466"/>
<path d="M75.3075 28.7061C75.2002 28.7061 75.1157 28.7353 75.0571 28.7937C74.9986 28.8521 74.9693 28.9398 74.9693 29.0566V33.6332C74.9693 33.7468 74.9986 33.8345 75.0571 33.8929C75.1157 33.9545 75.2002 33.9838 75.3075 33.9838C75.4246 33.9838 75.5124 33.9545 75.5676 33.8929C75.6229 33.8312 75.6522 33.7436 75.6522 33.6332V29.0566C75.6522 28.9398 75.6229 28.8521 75.5644 28.7937C75.5059 28.7353 75.4213 28.7061 75.3075 28.7061Z" fill="#084466"/>
<path d="M81.18 32.9841C81.1345 32.9484 81.0792 32.9257 81.0142 32.9224C80.9491 32.9192 80.8743 32.9419 80.7963 32.9971C80.6207 33.1302 80.4256 33.2275 80.2175 33.2892C80.0094 33.3541 79.7883 33.3833 79.5607 33.3833C79.1835 33.3833 78.8616 33.3022 78.6014 33.1431C78.3381 32.9841 78.1397 32.7504 78.0064 32.4453C77.8731 32.1402 77.8048 31.7702 77.8048 31.3385C77.8048 30.9068 77.8731 30.5335 78.0064 30.2316C78.1397 29.9298 78.3413 29.6993 78.6014 29.5403C78.8648 29.3812 79.1835 29.3001 79.5607 29.3001C79.7915 29.3001 80.0094 29.3293 80.211 29.391C80.4159 29.4526 80.6012 29.55 80.7735 29.6798C80.8516 29.735 80.9264 29.761 80.9947 29.7577C81.0629 29.7577 81.1215 29.7318 81.167 29.6928C81.2125 29.6506 81.245 29.5987 81.2613 29.537C81.2775 29.4754 81.2743 29.4104 81.2515 29.3423C81.2255 29.2741 81.1768 29.2124 81.0955 29.1573C80.9004 29.0047 80.6662 28.8879 80.3931 28.8035C80.12 28.7191 79.8371 28.6769 79.5444 28.6769C79.1575 28.6769 78.8095 28.7386 78.5039 28.8619C78.1982 28.9852 77.9381 29.1605 77.7267 29.3942C77.5154 29.6279 77.3528 29.907 77.2422 30.2316C77.1284 30.5562 77.0732 30.923 77.0732 31.3287C77.0732 31.8708 77.174 32.3447 77.3723 32.7439C77.5707 33.1431 77.8536 33.4515 78.221 33.6657C78.5884 33.8799 79.0307 33.987 79.5444 33.987C79.8468 33.987 80.1395 33.9449 80.4159 33.8572C80.6923 33.7728 80.9329 33.643 81.1345 33.471C81.2028 33.4223 81.2483 33.3671 81.2678 33.3022C81.2873 33.2373 81.2873 33.1756 81.271 33.1139C81.2548 33.0522 81.2223 33.0036 81.18 32.9679V32.9841Z" fill="#084466"/>
<path d="M84.9487 28.9982C84.8999 28.8943 84.8414 28.8197 84.7763 28.7742C84.7113 28.7288 84.6365 28.7028 84.552 28.7028C84.4674 28.7028 84.3926 28.7255 84.3244 28.7742C84.2561 28.8197 84.2008 28.8943 84.1553 28.9982L82.1457 33.5359C82.1067 33.6202 82.0905 33.6949 82.1002 33.7631C82.11 33.8312 82.1392 33.8864 82.1913 33.9253C82.2433 33.9643 82.3116 33.9838 82.3994 33.9838C82.4872 33.9838 82.5587 33.9611 82.614 33.9124C82.6693 33.8669 82.718 33.789 82.7603 33.6819L83.2058 32.64H85.8721L86.3176 33.6819C86.3631 33.7793 86.4119 33.8539 86.4737 33.9059C86.5322 33.9578 86.6103 33.9838 86.7078 33.9838C86.7956 33.9838 86.8639 33.9643 86.9127 33.9286C86.9614 33.8929 86.9907 33.8377 86.9972 33.7663C87.0037 33.6949 86.9875 33.617 86.9484 33.5359L84.9389 28.9982H84.9487ZM83.4529 32.085L84.5357 29.5305H84.552L85.6413 32.085H83.4562H83.4529Z" fill="#084466"/>
<path d="M83.7651 28.0959C83.9927 28.2679 84.2561 28.3523 84.5487 28.3523C84.8414 28.3523 85.1048 28.2679 85.3324 28.0959C85.56 27.9238 85.7096 27.6642 85.7843 27.3169C85.8039 27.239 85.7941 27.1741 85.7551 27.1254C85.7161 27.0767 85.6705 27.0507 85.6153 27.0507C85.5697 27.0475 85.5307 27.0507 85.4982 27.0702C85.4624 27.0864 85.4364 27.1091 85.4169 27.1351C85.3974 27.1611 85.3811 27.1935 85.3714 27.226C85.3226 27.4824 85.2186 27.6609 85.0625 27.7616C84.9064 27.8654 84.7341 27.9174 84.5487 27.9174C84.3634 27.9174 84.1975 27.8654 84.0382 27.7616C83.8789 27.6577 83.7748 27.4792 83.726 27.226C83.7163 27.1935 83.7 27.1611 83.6805 27.1351C83.661 27.1091 83.635 27.0864 83.6025 27.0702C83.57 27.054 83.5309 27.0475 83.4822 27.0507C83.4269 27.0507 83.3814 27.0767 83.3424 27.1254C83.3033 27.1741 83.2936 27.239 83.3131 27.3169C83.3879 27.6642 83.5375 27.9238 83.7651 28.0959Z" fill="#084466"/>
<path d="M94.7947 28.7645C94.7426 28.7255 94.6776 28.7061 94.5996 28.7061C94.502 28.7061 94.424 28.7288 94.372 28.771C94.3167 28.8164 94.2712 28.8813 94.2321 28.969L92.4697 33.0684L90.7008 28.969C90.6618 28.8813 90.6163 28.8132 90.5643 28.771C90.5123 28.7255 90.4342 28.7061 90.3334 28.7061C90.2554 28.7061 90.1871 28.7255 90.1318 28.7612C90.0765 28.7969 90.0375 28.8489 90.0212 28.917C90.005 28.9819 90.0147 29.0631 90.0538 29.1572L92.047 33.7046C92.0926 33.802 92.1446 33.8734 92.2096 33.9221C92.2746 33.9675 92.3559 33.9935 92.46 33.9935C92.564 33.9935 92.6453 33.9708 92.7071 33.9221C92.7689 33.8767 92.8177 33.802 92.8567 33.7046L94.8565 29.1572C94.8922 29.0696 94.902 28.9917 94.889 28.9268C94.876 28.8619 94.8434 28.8099 94.7947 28.7677V28.7645Z" fill="#084466"/>
<path d="M99.0738 29.3163C99.1681 29.3163 99.2397 29.2903 99.2917 29.2416C99.3437 29.1929 99.3697 29.1215 99.3697 29.0274C99.3697 28.9398 99.3437 28.8716 99.2917 28.8262C99.2397 28.7807 99.1681 28.758 99.0738 28.758H96.3652C96.2482 28.758 96.1571 28.7905 96.0921 28.8521C96.0271 28.917 95.9978 29.0079 95.9978 29.1248V33.5683C95.9978 33.6852 96.0303 33.776 96.0921 33.841C96.1571 33.9059 96.2482 33.9351 96.3652 33.9351H99.0738C99.1681 33.9351 99.2397 33.9124 99.2917 33.8637C99.3437 33.8182 99.3697 33.7468 99.3697 33.6527C99.3697 33.5586 99.3437 33.4904 99.2917 33.445C99.2397 33.3995 99.1681 33.3736 99.0738 33.3736H96.6611V31.5819H98.921C99.0153 31.5819 99.0836 31.5591 99.1356 31.5105C99.1844 31.465 99.2104 31.3936 99.2104 31.3027C99.2104 31.2151 99.1844 31.1469 99.1356 31.0982C99.0869 31.0495 99.0153 31.0236 98.921 31.0236H96.6611V29.313H99.0738V29.3163Z" fill="#084466"/>
<path d="M104.156 28.758H100.251C100.157 28.758 100.085 28.784 100.03 28.8327C99.9746 28.8813 99.9485 28.9527 99.9485 29.0469C99.9485 29.141 99.9746 29.2124 100.03 29.2643C100.085 29.3163 100.157 29.3422 100.251 29.3422H101.861V33.6397C101.861 33.7533 101.89 33.841 101.948 33.8994C102.007 33.9611 102.091 33.9903 102.205 33.9903C102.319 33.9903 102.404 33.9611 102.459 33.8994C102.514 33.8377 102.543 33.7501 102.543 33.6397V29.3422H104.153C104.25 29.3422 104.325 29.3163 104.377 29.2643C104.429 29.2124 104.455 29.141 104.455 29.0469C104.455 28.9527 104.429 28.8813 104.377 28.8327C104.325 28.784 104.25 28.758 104.153 28.758H104.156Z" fill="#084466"/>
<path d="M108.507 29.3163C108.601 29.3163 108.673 29.2903 108.725 29.2416C108.777 29.1929 108.803 29.1215 108.803 29.0274C108.803 28.9398 108.777 28.8716 108.725 28.8262C108.673 28.7807 108.601 28.758 108.507 28.758H105.798C105.681 28.758 105.59 28.7905 105.525 28.8521C105.46 28.917 105.431 29.0079 105.431 29.1248V33.5683C105.431 33.6852 105.463 33.776 105.525 33.841C105.59 33.9059 105.681 33.9351 105.798 33.9351H108.507C108.601 33.9351 108.673 33.9124 108.725 33.8637C108.777 33.8182 108.803 33.7468 108.803 33.6527C108.803 33.5586 108.777 33.4904 108.725 33.445C108.673 33.3995 108.601 33.3736 108.507 33.3736H106.094V31.5819H108.354C108.448 31.5819 108.517 31.5591 108.569 31.5105C108.617 31.465 108.643 31.3936 108.643 31.3027C108.643 31.2151 108.617 31.1469 108.569 31.0982C108.52 31.0495 108.448 31.0236 108.354 31.0236H106.094V29.313H108.507V29.3163Z" fill="#084466"/>
<path d="M113.339 32.2667C113.225 32.0525 113.098 31.8935 112.952 31.7961C112.89 31.7539 112.819 31.7247 112.747 31.702C112.89 31.6728 113.027 31.6306 113.147 31.5754C113.407 31.4585 113.605 31.2865 113.742 31.0658C113.879 30.8418 113.947 30.5757 113.947 30.2608C113.947 29.7804 113.797 29.4104 113.495 29.1475C113.193 28.8846 112.763 28.7548 112.204 28.7548H110.451C110.344 28.7548 110.26 28.784 110.198 28.8424C110.136 28.9008 110.107 28.9885 110.107 29.0988V33.63C110.107 33.7436 110.136 33.8312 110.194 33.8897C110.253 33.9513 110.338 33.9805 110.445 33.9805C110.562 33.9805 110.65 33.9513 110.705 33.8897C110.76 33.828 110.79 33.7403 110.79 33.63V31.7734H111.674C111.905 31.7734 112.087 31.8058 112.227 31.874C112.363 31.9389 112.487 32.0752 112.594 32.283L113.388 33.7371C113.433 33.8215 113.482 33.8832 113.544 33.9254C113.602 33.9676 113.68 33.987 113.778 33.987C113.875 33.987 113.94 33.9643 113.992 33.9156C114.041 33.8702 114.067 33.8085 114.074 33.7371C114.077 33.6624 114.057 33.5878 114.015 33.5099L113.339 32.27V32.2667ZM112.097 31.2476H110.793V29.3163H112.097C112.49 29.3163 112.783 29.3974 112.978 29.5597C113.173 29.722 113.274 29.9622 113.274 30.2803C113.274 30.5984 113.176 30.8386 112.978 31.0041C112.783 31.1697 112.487 31.2508 112.097 31.2508V31.2476Z" fill="#084466"/>
<path d="M115.768 28.7061C115.661 28.7061 115.576 28.7353 115.517 28.7937C115.459 28.8521 115.43 28.9398 115.43 29.0566V33.6332C115.43 33.7468 115.459 33.8345 115.517 33.8929C115.576 33.9545 115.661 33.9838 115.768 33.9838C115.885 33.9838 115.973 33.9545 116.028 33.8929C116.083 33.8312 116.113 33.7436 116.113 33.6332V29.0566C116.113 28.9398 116.083 28.8521 116.025 28.7937C115.966 28.7353 115.882 28.7061 115.768 28.7061Z" fill="#084466"/>
<path d="M121.618 28.7061C121.514 28.7061 121.435 28.7353 121.377 28.7905C121.322 28.8456 121.292 28.93 121.292 29.0371V32.7893L118.356 28.9041C118.301 28.8294 118.252 28.7775 118.21 28.7483C118.164 28.719 118.103 28.7028 118.018 28.7028C117.93 28.7028 117.859 28.732 117.803 28.7905C117.748 28.8489 117.722 28.9333 117.722 29.0469V33.6527C117.722 33.7566 117.751 33.8377 117.807 33.8961C117.862 33.9546 117.94 33.9838 118.037 33.9838C118.142 33.9838 118.22 33.9546 118.272 33.8961C118.324 33.8377 118.353 33.7566 118.353 33.6527V29.8746L121.296 33.7793C121.351 33.8539 121.403 33.9059 121.455 33.9383C121.507 33.9708 121.572 33.987 121.65 33.987C121.735 33.987 121.8 33.9578 121.852 33.8994C121.904 33.841 121.93 33.7598 121.93 33.6559V29.0371C121.93 28.93 121.904 28.8489 121.848 28.7905C121.793 28.7353 121.715 28.7061 121.614 28.7061H121.618Z" fill="#084466"/>
<path d="M126.017 28.9982C125.968 28.8943 125.91 28.8197 125.845 28.7742C125.78 28.7288 125.705 28.7028 125.62 28.7028C125.536 28.7028 125.461 28.7255 125.393 28.7742C125.324 28.8197 125.269 28.8943 125.224 28.9982L123.214 33.5359C123.175 33.6202 123.159 33.6949 123.169 33.7631C123.178 33.8312 123.208 33.8864 123.26 33.9253C123.312 33.9643 123.38 33.9838 123.468 33.9838C123.556 33.9838 123.627 33.9611 123.682 33.9124C123.738 33.8669 123.786 33.789 123.829 33.6819L124.274 32.64H126.941L127.386 33.6819C127.432 33.7793 127.48 33.8539 127.539 33.9059C127.597 33.9578 127.675 33.9838 127.773 33.9838C127.861 33.9838 127.929 33.9643 127.978 33.9286C128.027 33.8929 128.056 33.8377 128.062 33.7663C128.069 33.6949 128.053 33.617 128.014 33.5359L126.004 28.9982H126.017ZM124.521 32.085L125.604 29.5305H125.62L126.71 32.085H124.525H124.521Z" fill="#084466"/>
<path d="M132.537 32.2667C132.423 32.0525 132.296 31.8935 132.15 31.7961C132.088 31.7539 132.016 31.7247 131.945 31.702C132.088 31.6728 132.224 31.6306 132.345 31.5754C132.605 31.4585 132.803 31.2865 132.94 31.0658C133.076 30.8418 133.145 30.5757 133.145 30.2608C133.145 29.7804 132.995 29.4104 132.693 29.1475C132.39 28.8846 131.961 28.7548 131.402 28.7548H129.649C129.542 28.7548 129.457 28.784 129.396 28.8424C129.334 28.9008 129.304 28.9885 129.304 29.0988V33.63C129.304 33.7436 129.334 33.8312 129.392 33.8897C129.451 33.9513 129.535 33.9805 129.643 33.9805C129.76 33.9805 129.847 33.9513 129.903 33.8897C129.958 33.828 129.987 33.7403 129.987 33.63V31.7734H130.872C131.103 31.7734 131.285 31.8058 131.425 31.874C131.561 31.9389 131.685 32.0752 131.792 32.283L132.585 33.7371C132.631 33.8215 132.68 33.8832 132.741 33.9254C132.8 33.9676 132.878 33.987 132.976 33.987C133.073 33.987 133.138 33.9643 133.19 33.9156C133.239 33.8702 133.265 33.8085 133.271 33.7371C133.275 33.6624 133.255 33.5878 133.213 33.5099L132.537 32.27V32.2667ZM131.291 31.2476H129.987V29.3163H131.291C131.685 29.3163 131.977 29.3974 132.172 29.5597C132.368 29.722 132.468 29.9622 132.468 30.2803C132.468 30.5984 132.371 30.8386 132.172 31.0041C131.977 31.1697 131.681 31.2508 131.291 31.2508V31.2476Z" fill="#084466"/>
<path d="M135.827 28.0959C136.055 28.2679 136.318 28.3523 136.611 28.3523C136.904 28.3523 137.167 28.2679 137.395 28.0959C137.622 27.9238 137.772 27.6642 137.847 27.3169C137.866 27.239 137.856 27.1741 137.817 27.1254C137.778 27.0767 137.733 27.0507 137.677 27.0507C137.632 27.0475 137.593 27.0507 137.56 27.0702C137.525 27.0864 137.499 27.1091 137.479 27.1351C137.46 27.1611 137.443 27.1935 137.434 27.226C137.385 27.4824 137.281 27.6609 137.125 27.7616C136.969 27.8654 136.796 27.9174 136.611 27.9174C136.426 27.9174 136.26 27.8654 136.1 27.7616C135.941 27.6577 135.837 27.4792 135.788 27.226C135.778 27.1935 135.765 27.1611 135.743 27.1351C135.723 27.1091 135.697 27.0864 135.665 27.0702C135.632 27.054 135.593 27.0475 135.544 27.0507C135.489 27.0507 135.444 27.0767 135.405 27.1254C135.366 27.1741 135.356 27.239 135.375 27.3169C135.45 27.6642 135.6 27.9238 135.827 28.0959Z" fill="#084466"/>
<path d="M139.017 33.5391L137.008 29.0014C136.959 28.8976 136.9 28.8229 136.835 28.7775C136.77 28.732 136.695 28.7061 136.611 28.7061C136.526 28.7061 136.452 28.7288 136.383 28.7775C136.315 28.8229 136.26 28.8976 136.214 29.0014L134.205 33.5391C134.166 33.6235 134.149 33.6981 134.159 33.7663C134.169 33.8345 134.198 33.8896 134.25 33.9286C134.302 33.9675 134.371 33.987 134.458 33.987C134.546 33.987 134.618 33.9643 134.673 33.9156C134.728 33.8702 134.777 33.7923 134.819 33.6851L135.265 32.6432H137.931L138.377 33.6851C138.422 33.7825 138.471 33.8572 138.533 33.9091C138.591 33.961 138.669 33.987 138.767 33.987C138.855 33.987 138.923 33.9675 138.972 33.9318C139.02 33.8961 139.05 33.8409 139.056 33.7695C139.063 33.6981 139.046 33.6202 139.007 33.5391H139.017ZM135.515 32.085L136.598 29.5305H136.614L137.703 32.085H135.518H135.515Z" fill="#084466"/>
<path d="M23.8436 14.0609C22.9657 13.8434 22.0422 14.1193 21.1708 14.2654C19.9611 11.1981 16.2738 11.8765 14.6837 14.2427C12.9538 16.2356 11.2207 20.1728 15.0089 20.9388C14.9016 21.1498 14.7682 21.3543 14.6187 21.549C14.6154 21.5555 14.6122 21.5588 14.6089 21.562C14.1244 22.1755 13.4513 22.6753 12.814 22.9447C12.271 23.0291 12.375 23.8276 12.9213 23.7042C14.2155 23.1947 15.3698 22.1755 15.8608 20.8577C17.9028 20.3675 18.4101 17.5469 16.6835 16.3622C16.4201 16.1772 15.9649 15.8656 15.7275 16.2453C15.6429 16.4044 15.669 16.6803 15.8641 16.7614C16.0104 16.8263 16.1665 16.901 16.29 17.0049C17.6655 18.0468 16.8818 20.3675 14.9764 20.1793C12.3035 19.4977 13.7895 16.6381 14.9829 15.0736C15.9551 13.6325 17.9386 12.1394 19.6197 13.3858C19.766 13.4929 20.0099 13.7526 20.0652 13.8305C20.4782 14.1615 20.3741 15.1385 21.0179 15.0736C21.8471 14.8983 22.699 14.6776 23.551 14.7588C23.7916 14.8626 23.8631 15.1742 23.9086 15.4112C23.9086 15.4112 23.9119 15.4371 23.9152 15.4469C23.9444 15.6611 23.9119 15.8721 23.9086 16.0831C23.8826 16.3882 23.603 17.1477 23.2843 17.5015C23.2583 17.5469 22.8941 17.9429 22.7218 18.0565C22.7218 18.063 22.699 18.0792 22.6925 18.0857C22.2893 18.3876 21.8178 18.6018 21.3171 18.6765C21.0277 18.6959 20.5724 18.6732 20.5822 19.0757C20.7708 19.6859 20.6245 22.8409 21.2878 22.737C21.4764 22.7273 21.6878 22.5715 21.665 22.3605C21.5675 21.3835 21.4699 20.4065 21.3724 19.4263C23.655 19.2932 26.0547 15.6806 23.8469 14.0609H23.8436ZM37.6209 23.2076C37.5558 23.0032 37.3802 22.9188 37.1786 22.9415C35.7642 23.2304 33.7937 21.971 33.9693 20.361C34.3399 19.0725 35.7642 17.693 34.8147 16.32C35.2602 15.3722 35.478 13.441 34.535 12.7853C33.8912 12.9346 33.4425 13.6357 32.8865 13.996C31.7321 12.8178 30.2819 14.194 29.017 13.9246C27.4855 12.7042 26.4189 14.366 25.8174 15.6676C25.024 17.6995 27.4464 19.4847 27.2578 21.3121C26.3701 23.4511 29.1536 22.3897 27.4725 19.1504C26.8059 17.9591 25.8401 16.4596 26.9164 15.2034C27.1961 14.8626 27.4204 14.3985 27.8431 14.2232C27.9342 14.2135 28.0415 14.2459 28.1228 14.2946C29.2739 15.2684 30.5518 14.2654 31.8004 14.2751C31.9077 14.2946 32.0183 14.3108 32.1158 14.3595C32.1093 14.3563 32.0996 14.3498 32.0898 14.3433C32.2329 14.4082 32.3792 14.4991 32.4247 14.6614C32.8539 15.5021 33.8327 14.0187 34.3172 13.7818C34.444 14.1972 34.4635 14.6452 34.4115 15.0768C34.3952 15.2813 34.2261 15.898 34.031 16.1934C33.862 16.5991 34.2619 16.6998 34.3595 17.1412C34.3595 17.1444 34.3595 17.1477 34.3595 17.1509C34.405 17.3587 34.3855 17.6411 34.2099 18.063C34.2034 18.076 34.1969 18.0922 34.1936 18.102C33.9237 18.7414 33.5075 19.3159 33.2767 19.9716C32.893 21.5782 34.2066 23.2109 35.7447 23.5809C36.2454 23.6523 37.6892 24.0451 37.6176 23.2044L37.6209 23.2076ZM27.9114 14.2232C27.9114 14.2232 27.9374 14.2232 27.9439 14.2297C27.9342 14.2297 27.9244 14.2264 27.9114 14.2232ZM26.2238 33.9513C26.9294 32.9743 26.8611 31.5851 27.518 30.5594C28.952 28.4464 31.5078 27.2032 33.979 26.7943C35.3382 26.5703 37.0876 26.9241 38.5443 26.5184C40.2124 26.1548 41.8643 25.2785 43.6104 25.5771C43.6299 25.5836 43.6267 25.5868 43.6104 25.5771C44.2965 26.2295 42.9503 26.4535 42.5081 26.5703C41.3147 26.8689 40.1832 27.3493 39.0158 27.7291C38.4435 28.0407 35.6406 28.5146 35.826 29.2124C35.8682 29.3974 36.1056 29.5467 36.2909 29.4753C37.5721 28.9625 38.8988 28.5827 40.1962 28.1153C41.37 27.3785 45.0574 27.4532 44.4851 25.5414C45.4931 25.1227 46.3223 24.3989 47.0572 23.6134C47.3596 23.2693 48.6017 22.1008 48.9073 22.8409C48.9073 22.8344 48.9073 22.8311 48.9073 22.8246C48.9073 22.8506 48.9171 22.8928 48.9106 22.9058C48.9041 22.9317 48.8976 22.9707 48.9008 22.9512C46.6117 25.866 43.2235 27.7453 40.0564 29.5987C38.2582 30.1699 36.3235 30.2251 34.5058 30.7672C32.9775 31.0495 31.7256 32.0525 31.0428 33.4352C30.7924 33.8604 31.459 34.2369 31.6964 33.815C31.8719 33.5001 32.067 33.195 32.2849 32.9094C32.3987 32.7568 32.7206 32.3998 32.9515 32.2278C35.2537 30.725 38.6256 31.2768 41.0806 29.9135C44.0917 28.0537 47.249 26.249 49.4992 23.4608C50.0194 22.6591 49.252 21.6204 48.3318 21.8898C46.8816 22.1852 46.2117 23.74 44.9794 24.4281C45.8703 22.8116 47.2913 21.3965 47.7693 19.5918C47.8018 18.089 45.9093 18.1506 45.3273 19.2834C44.2282 18.472 43.1779 19.7508 42.726 20.6791C40.9896 19.8612 40.349 21.9418 39.7344 23.1135C38.9053 24.3372 37.6826 25.2785 36.4015 25.9893C32.3499 25.6647 27.1993 27.7063 26.175 31.9908C26.1523 32.5069 25.037 34.2434 26.2173 33.9546L26.2238 33.9513ZM48.8196 22.6526C48.8196 22.6526 48.8391 22.6656 48.8391 22.6688C48.8293 22.6623 48.8228 22.6558 48.8196 22.6526ZM48.6797 22.6104C48.6797 22.6104 48.7057 22.6104 48.7253 22.6169C48.709 22.6169 48.696 22.6137 48.6797 22.6104ZM42.5926 24.7754C43.9616 23.3115 44.8005 21.5101 45.8508 19.8352C46.0361 19.6048 46.2247 19.3386 46.4946 19.1926C46.6247 19.1179 46.9206 19.1828 47.0084 19.3613V19.3678C47.0539 19.9294 46.6182 20.4227 46.3613 20.8966C45.5159 22.2177 44.6444 23.5225 43.8153 24.8533C43.6657 24.8046 43.5064 24.7819 43.347 24.7721C43.0966 24.7559 42.843 24.7591 42.5894 24.7721L42.5926 24.7754ZM40.7197 25.1064C42.2252 23.6296 42.8658 21.5588 44.1697 19.9553C44.2347 19.9099 44.2998 19.8709 44.3713 19.8385C44.3713 19.8385 44.368 19.8385 44.3648 19.8385C44.381 19.832 44.4493 19.8028 44.4006 19.832C44.5144 19.7833 44.6509 19.7671 44.768 19.8093C44.7745 19.8093 44.7843 19.8125 44.7973 19.819C44.7908 19.819 44.781 19.8125 44.7745 19.8125C44.8233 19.8287 44.8655 19.8579 44.9046 19.8937C43.9551 21.6983 42.8885 23.4381 41.4643 24.9182C41.2139 24.9701 40.9668 25.035 40.7229 25.1032L40.7197 25.1064ZM38.0306 25.8562C39.6044 24.8306 40.6091 23.3018 41.344 21.6139C41.3538 21.601 41.37 21.5815 41.3733 21.5815C41.3733 21.5815 41.3733 21.588 41.3668 21.5977C41.4481 21.4938 41.5424 21.4062 41.6627 21.3543C41.7537 21.3186 41.8675 21.2829 41.9683 21.2731C42.0106 21.2731 42.1049 21.2666 42.1439 21.2731C42.0951 21.2634 42.1894 21.2634 42.2187 21.2796C42.2154 21.2796 42.2057 21.2796 42.1927 21.2796C42.2447 21.2861 42.2967 21.3088 42.3358 21.3251C42.3358 21.3251 42.3423 21.3251 42.3455 21.3283C42.3488 21.3316 42.352 21.3283 42.3553 21.3316H42.3488C42.3553 21.3316 42.3585 21.338 42.365 21.3413C41.6009 22.9317 40.5148 24.3502 39.2369 25.5609C38.837 25.6777 38.4338 25.7848 38.0273 25.866L38.0306 25.8562ZM8.53808 11.3636C11.0354 4.53766 17.9776 0.0973747 25.0597 0C25.0695 0 25.0792 0 25.089 0C25.0988 0 25.1085 0 25.1183 0C32.2004 0.0973747 39.1394 4.53766 41.6399 11.3636C42.5016 13.574 42.9048 15.9597 42.83 18.3324C42.8138 18.816 42.0561 18.8193 42.0756 18.3324C42.4886 8.25413 34.0831 0.873126 25.0922 0.756277C16.0982 0.876372 7.6959 8.25413 8.10886 18.3324C8.12512 18.8193 7.37074 18.816 7.35448 18.3324C7.27969 15.963 7.6829 13.574 8.54459 11.3636H8.53808ZM23.9932 31.9908C22.9722 27.7063 17.8216 25.6647 13.7667 25.9893C12.4823 25.2785 11.2597 24.3372 10.4338 23.1135C9.81598 21.9418 9.17866 19.8612 7.44228 20.6791C6.9903 19.7476 5.94326 18.472 4.84095 19.2834C4.25891 18.1506 2.36645 18.089 2.39896 19.5918C2.87696 21.3965 4.29468 22.8116 5.18888 24.4281C3.95976 23.7432 3.28666 22.1884 1.83643 21.8898C0.916209 21.6204 0.145567 22.6591 0.669083 23.4608C2.91923 26.249 6.07658 28.0537 9.08761 29.9135C11.5426 31.2768 14.9146 30.725 17.2167 32.2278C17.4476 32.3966 17.7695 32.7568 17.8833 32.9094C18.1012 33.195 18.2963 33.5001 18.4719 33.815C18.706 34.2337 19.3758 33.8572 19.1255 33.4352C18.4426 32.0525 17.1907 31.0463 15.6625 30.7672C13.8448 30.2251 11.9133 30.1699 10.1119 29.5987C6.94477 27.7453 3.55655 25.866 1.26739 22.9512C1.26739 22.9707 1.26088 22.935 1.25763 22.9058C1.25113 22.8895 1.26088 22.8506 1.26088 22.8246C1.26088 22.8311 1.26088 22.8344 1.26088 22.8409C1.56654 22.1008 2.80867 23.2726 3.11107 23.6134C3.8492 24.3989 4.67512 25.1227 5.68313 25.5414C5.11084 27.4532 8.79821 27.3785 9.97206 28.1153C11.2695 28.5827 12.5961 28.9625 13.8773 29.4753C14.0626 29.5467 14.3 29.3942 14.3423 29.2124C14.5276 28.5178 11.7215 28.0407 11.1524 27.7291C9.98182 27.3493 8.85349 26.8689 7.66014 26.5703C7.21791 26.4535 5.87173 26.2295 6.55783 25.5771C6.54157 25.5868 6.53832 25.5803 6.55783 25.5771C8.30396 25.2785 9.9558 26.1548 11.6239 26.5184C13.0839 26.9241 14.83 26.5703 16.1892 26.7943C18.6605 27.2032 21.2163 28.4464 22.6503 30.5594C23.3071 31.5851 23.2388 32.9743 23.9444 33.9513C25.1248 34.2402 24.0094 32.5037 23.9867 31.9876L23.9932 31.9908ZM1.33242 22.6721C1.33242 22.6721 1.34218 22.6623 1.35193 22.6558C1.34543 22.6591 1.33892 22.6656 1.33242 22.6721ZM1.44948 22.6169C1.46899 22.6104 1.48525 22.6072 1.495 22.6104C1.47874 22.6104 1.46574 22.6169 1.44948 22.6169ZM6.82446 24.7754C6.66513 24.7851 6.50255 24.8046 6.35622 24.8565C5.52705 23.5257 4.65561 22.2209 3.81018 20.8999C3.55655 20.426 3.11758 19.9358 3.1631 19.3711C3.1631 19.3711 3.1631 19.3711 3.1631 19.3646C3.25415 19.1828 3.5468 19.1179 3.67686 19.1958C3.94675 19.3419 4.13209 19.608 4.32069 19.8385C5.37097 21.5101 6.2099 23.3147 7.57885 24.7786C7.32522 24.7656 7.07159 24.7624 6.82121 24.7786L6.82446 24.7754ZM8.71042 24.9214C7.2862 23.4413 6.22291 21.7016 5.27017 19.8969C5.30594 19.8579 5.35146 19.832 5.40024 19.8158C5.39373 19.8158 5.38398 19.8222 5.37748 19.8222C5.39048 19.8158 5.40349 19.8093 5.40674 19.8125C5.5238 19.7703 5.66037 19.7865 5.77418 19.8352C5.72215 19.8093 5.79369 19.8352 5.80995 19.8417C5.80995 19.8417 5.80995 19.8417 5.80344 19.8417C5.87498 19.8742 5.94001 19.9131 6.00505 19.9586C7.30896 21.562 7.94953 23.6296 9.45505 25.1097C9.20792 25.0383 8.96405 24.9734 8.71367 24.9247L8.71042 24.9214ZM10.9346 25.5511C9.65665 24.3404 8.56735 22.922 7.80646 21.3316C7.81296 21.3283 7.81622 21.3251 7.82272 21.3218C7.82272 21.3218 7.81947 21.3218 7.81622 21.3218C7.81622 21.3218 7.82272 21.3218 7.82597 21.3186C7.82922 21.3153 7.83247 21.3153 7.83573 21.3153C7.87475 21.3023 7.92677 21.2796 7.9788 21.2699C7.96904 21.2699 7.95929 21.2699 7.95279 21.2699C7.9788 21.2569 8.0731 21.2569 8.02757 21.2634C8.06659 21.2634 8.16089 21.2634 8.20316 21.2634C8.30396 21.2731 8.41777 21.3088 8.50882 21.3445C8.63238 21.3965 8.72343 21.4809 8.80472 21.588C8.79822 21.5782 8.79821 21.575 8.79821 21.5717C8.80147 21.5717 8.81772 21.5912 8.82748 21.6042C9.56235 23.292 10.5671 24.8208 12.1409 25.8465C11.7345 25.7686 11.3313 25.6615 10.9313 25.5414L10.9346 25.5511Z" fill="#084466"/>
<path d="M26.7766 5.95607V3.88199C26.7831 3.48276 26.3246 3.486 26.0385 3.50548C25.6873 3.51197 25.3816 3.50872 25.1118 3.50548H25.0565C24.7866 3.50872 24.4809 3.51197 24.1298 3.50548C23.8436 3.486 23.3851 3.486 23.3916 3.88199V5.95607C20.3578 5.99178 20.9919 5.40753 20.9366 8.77669C20.9171 9.06233 20.9171 9.51999 21.3138 9.5135H23.3916V11.5876C23.3916 11.7953 23.5607 11.9641 23.7688 11.9641C23.7948 11.9641 24.3899 11.9641 25.0532 11.9641H25.1085C25.7718 11.9641 26.3669 11.9641 26.3929 11.9641C26.601 11.9641 26.7701 11.7953 26.7701 11.5876V9.5135H28.8479C29.2479 9.51999 29.2446 9.06233 29.2251 8.77669C29.1666 5.41077 29.8039 5.99178 26.7701 5.95607H26.7766ZM28.4967 8.77669C25.5865 8.82214 26.0612 8.24438 26.0417 11.2273H24.133C24.1135 8.24113 24.5882 8.81889 21.678 8.77669V6.81622C24.6695 6.79674 24.0907 7.27063 24.133 4.36562H26.0417C26.0873 7.27063 25.5085 6.79674 28.4967 6.81622V8.77669Z" fill="#084466"/>
</g>
<defs>
<clipPath id="clip0_1_16">
<rect width="181" height="34" fill="white" transform="translate(0.5)"/>
</clipPath>
</defs>
</svg>
