<?xml version="1.0" encoding="UTF-8"?><svg id="Layer_2" xmlns="http://www.w3.org/2000/svg" viewBox="0 0 556.64 104.75"><defs><style>.cls-1{fill:#084466;}.cls-1,.cls-2{stroke-width:0px;}.cls-2{fill:#cca162;}</style></defs><g id="Logos"><g id="Arca-lui-Noe_HorizontalLogo-ColorD"><path class="cls-1" d="M201.96,16.84c-.59-1.31-1.3-2.25-2.14-2.82-.84-.57-1.78-.85-2.82-.85s-2.05.28-2.88.85c-.84.57-1.55,1.51-2.14,2.82l-17.92,39.71c-.45,1.04-.61,1.98-.48,2.82.14.84.53,1.51,1.19,2,.66.5,1.53.75,2.61.75,1.18,0,2.08-.3,2.72-.88.63-.59,1.24-1.54,1.83-2.85l3.34-7.87h23.34l3.39,7.87c.54,1.27,1.16,2.21,1.87,2.82.7.61,1.69.92,2.95.92,1.04,0,1.88-.24,2.51-.71.63-.48,1.02-1.14,1.15-2,.14-.86-.05-1.81-.54-2.85l-17.99-39.71ZM188.28,43.59l8.59-20.43h.14l8.65,20.43h-17.38Z"/><path class="cls-1" d="M247.61,28.42c-.57-.57-1.32-.8-2.27-.71-3.08.27-5.54,1.11-7.4,2.51-1.34,1.01-2.35,2.37-3.06,4.06v-2.16c0-1.4-.36-2.47-1.09-3.19-.72-.72-1.74-1.09-3.06-1.09s-2.33.36-3.05,1.09c-.72.72-1.09,1.79-1.09,3.19v25.66c0,1.4.37,2.48,1.12,3.22.75.75,1.82,1.12,3.22,1.12s2.47-.37,3.19-1.12c.72-.75,1.09-1.82,1.09-3.22v-14.05c0-2.58.7-4.58,2.1-6.01,1.4-1.43,3.48-2.27,6.25-2.55l1.49-.14c1.22-.14,2.14-.55,2.75-1.26.61-.7.87-1.62.78-2.75-.09-1.18-.42-2.05-.98-2.61Z"/><path class="cls-1" d="M277.79,30.35c-1.54-.95-3.18-1.63-4.92-2.04-1.74-.41-3.36-.61-4.85-.61-2.62,0-5,.4-7.13,1.19-2.13.79-3.94,1.92-5.43,3.39-1.49,1.47-2.64,3.26-3.43,5.36-.79,2.1-1.19,4.49-1.19,7.16,0,3.53.7,6.61,2.1,9.23,1.4,2.63,3.39,4.65,5.97,6.08,2.58,1.43,5.61,2.14,9.1,2.14,1.49,0,3.08-.2,4.75-.61,1.67-.41,3.26-1.06,4.75-1.97.68-.41,1.14-.93,1.39-1.56.25-.63.33-1.28.24-1.94-.09-.66-.34-1.22-.75-1.7-.41-.48-.92-.78-1.53-.92-.61-.14-1.3,0-2.07.41-1.04.59-2.07,1.02-3.09,1.29-1.02.27-2,.41-2.95.41-2.94,0-5.22-.96-6.82-2.88-1.61-1.92-2.41-4.56-2.41-7.91,0-1.72.2-3.24.61-4.55.41-1.31,1.01-2.41,1.8-3.29.79-.88,1.75-1.56,2.88-2.04,1.13-.48,2.44-.71,3.94-.71.95,0,1.95.15,2.99.44,1.04.29,2.06.74,3.06,1.32.77.41,1.47.56,2.1.44.63-.11,1.16-.41,1.6-.88.43-.48.71-1.04.85-1.7.14-.66.09-1.3-.14-1.93-.23-.63-.7-1.18-1.43-1.63Z"/><path class="cls-1" d="M306.74,29.2c-2.1-.99-4.79-1.49-8.04-1.49-1.59,0-3.34.18-5.26.54-1.92.36-3.93.97-6.01,1.83-.86.32-1.47.8-1.83,1.46-.36.66-.54,1.32-.54,2s.18,1.3.54,1.87c.36.57.87.94,1.53,1.12.66.18,1.41.07,2.27-.34,1.67-.77,3.27-1.31,4.79-1.63,1.52-.32,2.93-.48,4.24-.48,2.35,0,4.03.5,5.02,1.49.99,1,1.49,2.63,1.49,4.89v1.43h-2.38c-4.8,0-8.62.32-11.47.95-2.85.63-4.91,1.66-6.18,3.09-1.27,1.43-1.9,3.36-1.9,5.8,0,1.99.53,3.78,1.6,5.36,1.06,1.59,2.53,2.84,4.41,3.77,1.88.93,4.02,1.39,6.41,1.39,1.81,0,3.42-.32,4.82-.95,1.4-.63,2.57-1.53,3.5-2.68.55-.69.99-1.47,1.32-2.31v1.46c0,1.4.35,2.48,1.05,3.22.7.75,1.69,1.12,2.95,1.12s2.24-.37,2.92-1.12c.68-.75,1.02-1.82,1.02-3.22v-16.29c0-3.17-.52-5.76-1.56-7.77-1.04-2.01-2.61-3.52-4.72-4.51ZM304.94,48.27c0,1.58-.34,2.99-1.02,4.21-.68,1.22-1.6,2.18-2.75,2.88-1.15.7-2.48,1.05-3.97,1.05-1.86,0-3.3-.48-4.35-1.43-1.04-.95-1.56-2.17-1.56-3.67,0-1.18.35-2.09,1.05-2.75.7-.66,1.89-1.12,3.56-1.39,1.67-.27,3.91-.41,6.72-.41h2.31v1.49Z"/><path class="cls-1" d="M355.58,55.13c-.32.05-.63.08-.95.1-.32.02-.66.03-1.02.03-1.63,0-2.88-.5-3.77-1.49-.88-1-1.32-2.53-1.32-4.62v-31.7c0-1.4-.37-2.47-1.12-3.19-.75-.72-1.8-1.09-3.16-1.09s-2.4.36-3.12,1.09c-.72.72-1.09,1.79-1.09,3.19v32.11c0,4.16.95,7.32,2.85,9.47,1.9,2.15,4.73,3.22,8.49,3.22.5,0,.99-.02,1.49-.07.5-.05.97-.09,1.43-.14,1.04-.14,1.79-.52,2.24-1.15.45-.63.68-1.52.68-2.65,0-1.31-.11-2.18-.34-2.61-.23-.43-.66-.6-1.29-.51Z"/><path class="cls-1" d="M387.89,27.84c-1.36,0-2.4.35-3.12,1.05-.72.7-1.09,1.78-1.09,3.22v14.93c0,2.58-.72,4.65-2.17,6.21-1.45,1.56-3.3,2.34-5.57,2.34-2.08,0-3.6-.57-4.55-1.7-.95-1.13-1.43-2.87-1.43-5.23v-16.56c0-1.45-.37-2.52-1.12-3.22-.75-.7-1.8-1.05-3.16-1.05s-2.4.35-3.12,1.05c-.72.7-1.09,1.78-1.09,3.22v16.43c0,3.03.44,5.57,1.32,7.6.88,2.04,2.23,3.56,4.04,4.58,1.81,1.02,4.1,1.53,6.86,1.53s4.9-.66,6.82-1.97c1.37-.94,2.48-2.17,3.36-3.68v1.17c0,1.4.36,2.48,1.09,3.22.72.75,1.74,1.12,3.06,1.12,2.76,0,4.14-1.45,4.14-4.34v-25.66c0-1.45-.37-2.52-1.12-3.22-.75-.7-1.8-1.05-3.16-1.05Z"/><path class="cls-1" d="M405.2,27.91c-1.36,0-2.4.4-3.12,1.19-.72.79-1.09,1.94-1.09,3.43v24.91c0,1.45.36,2.58,1.09,3.39.72.81,1.77,1.22,3.12,1.22s2.47-.41,3.19-1.22c.72-.81,1.09-1.95,1.09-3.39v-24.91c0-1.49-.37-2.64-1.12-3.43-.75-.79-1.8-1.19-3.16-1.19Z"/><path class="cls-1" d="M405.2,12.64c-1.58,0-2.82.39-3.7,1.15s-1.32,1.88-1.32,3.33.44,2.5,1.32,3.29c.88.79,2.12,1.19,3.7,1.19s2.87-.4,3.73-1.19c.86-.79,1.29-1.89,1.29-3.29s-.43-2.56-1.29-3.33-2.1-1.15-3.73-1.15Z"/><path class="cls-1" d="M473.83,13.18c-1.31,0-2.32.36-3.02,1.09-.7.72-1.05,1.74-1.05,3.05v29.82l-24.23-31.45c-.72-.9-1.35-1.55-1.87-1.94-.52-.38-1.3-.58-2.34-.58-1.13,0-2.05.37-2.75,1.12-.7.75-1.05,1.82-1.05,3.22v40.39c0,1.36.35,2.4,1.05,3.12.7.72,1.71,1.09,3.02,1.09s2.31-.36,2.99-1.09c.68-.72,1.02-1.77,1.02-3.12v-29.9l24.23,31.53c.72.91,1.39,1.56,2,1.97.61.41,1.44.61,2.48.61s1.95-.36,2.58-1.09c.63-.72.95-1.72.95-2.99V17.32c0-1.31-.34-2.33-1.02-3.05-.68-.72-1.67-1.09-2.99-1.09Z"/><path class="cls-1" d="M511.57,29.81c-2.54-1.4-5.52-2.1-8.96-2.1-2.58,0-4.91.4-6.99,1.19-2.08.79-3.87,1.95-5.36,3.46-1.49,1.52-2.64,3.33-3.43,5.43-.79,2.1-1.19,4.49-1.19,7.16,0,3.53.7,6.6,2.1,9.2,1.4,2.6,3.37,4.61,5.91,6.01,2.53,1.4,5.52,2.1,8.96,2.1,2.58,0,4.91-.4,6.99-1.19,2.08-.79,3.87-1.95,5.36-3.46,1.49-1.52,2.64-3.34,3.43-5.46.79-2.13,1.19-4.53,1.19-7.2,0-3.53-.7-6.58-2.1-9.16-1.4-2.58-3.37-4.57-5.91-5.97ZM509.98,50.96c-.7,1.61-1.69,2.82-2.95,3.63-1.27.81-2.74,1.22-4.41,1.22-2.54,0-4.57-.92-6.11-2.75-1.54-1.83-2.31-4.54-2.31-8.11,0-2.4.35-4.4,1.05-6.01.7-1.61,1.69-2.81,2.95-3.6,1.27-.79,2.74-1.19,4.41-1.19,2.53,0,4.57.89,6.11,2.68,1.54,1.79,2.31,4.49,2.31,8.11,0,2.4-.35,4.4-1.05,6.01Z"/><path class="cls-1" d="M555.46,53.91c-.43-.45-1.01-.71-1.73-.78-.72-.07-1.56.17-2.51.71-1.31.72-2.7,1.23-4.17,1.53-1.47.3-2.8.44-3.97.44-3.39,0-5.96-.92-7.7-2.75-1.38-1.45-2.21-3.51-2.49-6.14h20.52c1.04,0,1.84-.21,2.41-.64.57-.43.85-1.05.85-1.87,0-2.58-.35-4.9-1.05-6.96-.7-2.06-1.72-3.81-3.06-5.26-1.33-1.45-2.94-2.56-4.82-3.33-1.88-.77-3.99-1.15-6.35-1.15-3.21,0-6.08.74-8.59,2.21-2.51,1.47-4.48,3.5-5.9,6.08-1.43,2.58-2.14,5.59-2.14,9.03s.73,6.58,2.21,9.16c1.47,2.58,3.56,4.57,6.28,5.97,2.71,1.4,5.95,2.1,9.71,2.1,1.77,0,3.68-.24,5.74-.71,2.06-.48,3.88-1.21,5.46-2.21.81-.5,1.39-1.09,1.73-1.76.34-.68.46-1.35.37-2-.09-.66-.35-1.21-.78-1.66ZM533.8,38.53c.7-1.61,1.72-2.85,3.06-3.73,1.33-.88,2.95-1.32,4.85-1.32,1.72,0,3.16.37,4.31,1.12,1.15.75,2.04,1.82,2.65,3.22.51,1.16.79,2.58.88,4.21h-16.65c.16-1.29.45-2.46.9-3.5Z"/><path class="cls-2" d="M186.17,101.62c-.14-.11-.31-.18-.51-.19-.2-.01-.43.06-.67.23-.54.41-1.14.71-1.78.9-.64.2-1.32.29-2.02.29-1.16,0-2.15-.25-2.95-.74-.81-.49-1.42-1.21-1.83-2.15-.41-.94-.62-2.08-.62-3.41s.21-2.48.62-3.41c.41-.93,1.03-1.64,1.83-2.13.81-.49,1.79-.74,2.95-.74.71,0,1.38.09,2,.28.63.19,1.2.49,1.73.89.24.17.47.25.68.24.21,0,.39-.08.53-.2.14-.13.24-.29.29-.48.05-.19.04-.39-.03-.6-.08-.21-.23-.4-.48-.57-.6-.47-1.32-.83-2.16-1.09-.84-.26-1.71-.39-2.61-.39-1.19,0-2.26.19-3.2.57-.94.38-1.74.92-2.39,1.64-.65.72-1.15,1.58-1.49,2.58-.35,1-.52,2.13-.52,3.38,0,1.67.31,3.13.92,4.36.61,1.23,1.48,2.18,2.61,2.84,1.13.66,2.49.99,4.07.99.93,0,1.83-.13,2.68-.4.85-.26,1.59-.66,2.21-1.19.21-.15.35-.32.41-.52.06-.2.06-.39.01-.58-.05-.19-.15-.34-.28-.45Z"/><path class="cls-2" d="M199.83,102.74h-7.2v-13.17c0-.35-.09-.61-.27-.79s-.44-.27-.79-.27-.59.09-.77.27c-.18.18-.27.45-.27.79v13.89c0,.33.09.6.28.79.19.2.45.29.78.29h8.24c.32,0,.55-.08.71-.24.16-.16.24-.39.24-.69,0-.29-.08-.5-.24-.66-.16-.15-.4-.23-.71-.23Z"/><path class="cls-2" d="M205.11,88.44c-.33,0-.59.09-.77.27s-.27.45-.27.81v14.1c0,.35.09.62.27.8.18.19.44.28.77.28.36,0,.63-.09.8-.28.17-.19.26-.46.26-.8v-14.1c0-.36-.09-.63-.27-.81-.18-.18-.44-.27-.79-.27Z"/><path class="cls-2" d="M223.09,88.44c-.32,0-.56.09-.74.26-.17.17-.26.43-.26.76v11.56l-9.03-11.97c-.17-.23-.32-.39-.45-.48-.14-.09-.33-.14-.59-.14-.27,0-.49.09-.66.27-.17.18-.25.44-.25.79v14.19c0,.32.09.57.26.75.17.18.41.27.71.27.32,0,.56-.09.72-.27.17-.18.25-.43.25-.75v-11.64l9.05,12.03c.17.23.33.39.49.49.16.1.36.15.6.15.26,0,.46-.09.62-.27.16-.18.24-.43.24-.75v-14.23c0-.33-.08-.58-.25-.76-.17-.17-.41-.26-.72-.26Z"/><path class="cls-2" d="M230.06,88.44c-.33,0-.59.09-.77.27s-.27.45-.27.81v14.1c0,.35.09.62.27.8.18.19.44.28.77.28.36,0,.63-.09.8-.28.17-.19.26-.46.26-.8v-14.1c0-.36-.09-.63-.27-.81s-.44-.27-.79-.27Z"/><path class="cls-2" d="M248.12,101.62c-.14-.11-.31-.18-.51-.19-.2-.01-.43.06-.67.23-.54.41-1.14.71-1.78.9-.64.2-1.32.29-2.02.29-1.16,0-2.15-.25-2.95-.74-.81-.49-1.42-1.21-1.83-2.15-.41-.94-.62-2.08-.62-3.41s.21-2.48.62-3.41c.41-.93,1.03-1.64,1.83-2.13.81-.49,1.79-.74,2.95-.74.71,0,1.38.09,2,.28.63.19,1.2.49,1.73.89.24.17.47.25.68.24.21,0,.39-.08.53-.2.14-.13.24-.29.29-.48.05-.19.04-.39-.03-.6-.08-.21-.23-.4-.48-.57-.6-.47-1.32-.83-2.16-1.09-.84-.26-1.71-.39-2.61-.39-1.19,0-2.26.19-3.2.57-.94.38-1.74.92-2.39,1.64-.65.72-1.15,1.58-1.49,2.58-.35,1-.52,2.13-.52,3.38,0,1.67.31,3.13.92,4.36.61,1.23,1.48,2.18,2.61,2.84,1.13.66,2.49.99,4.07.99.93,0,1.83-.13,2.68-.4.85-.26,1.59-.66,2.21-1.19.21-.15.35-.32.41-.52.06-.2.06-.39.01-.58-.05-.19-.15-.34-.28-.45Z"/><path class="cls-2" d="M259.71,89.34c-.15-.32-.33-.55-.53-.69-.2-.14-.43-.22-.69-.22s-.49.07-.7.22c-.21.14-.38.37-.52.69l-6.18,13.98c-.12.26-.17.49-.14.7.03.21.12.38.28.5.16.12.37.18.64.18s.49-.07.66-.22c.17-.14.32-.38.45-.71l1.37-3.21h8.2l1.37,3.21c.14.3.29.53.48.69.18.16.42.24.72.24.27,0,.48-.06.63-.17.15-.11.24-.28.26-.5.02-.22-.03-.46-.15-.71l-6.18-13.98ZM255.11,98.85l3.33-7.87h.05l3.35,7.87h-6.72Z"/><path class="cls-2" d="M256.07,86.56c.7.53,1.51.79,2.41.79s1.71-.26,2.41-.79c.7-.53,1.16-1.33,1.39-2.4.06-.24.03-.44-.09-.59-.12-.15-.26-.23-.43-.23-.14-.01-.26,0-.36.06-.11.05-.19.12-.25.2-.06.08-.11.18-.14.28-.15.79-.47,1.34-.95,1.65-.48.32-1.01.48-1.58.48s-1.08-.16-1.57-.48c-.49-.32-.81-.87-.96-1.65-.03-.1-.08-.2-.14-.28-.06-.08-.14-.15-.24-.2-.1-.05-.22-.07-.37-.06-.17,0-.31.08-.43.23-.12.15-.15.35-.09.59.23,1.07.69,1.87,1.39,2.4Z"/><path class="cls-2" d="M289.99,88.62c-.16-.12-.36-.18-.6-.18-.3,0-.54.07-.7.2-.17.14-.31.34-.43.61l-5.42,12.63-5.44-12.63c-.12-.27-.26-.48-.42-.61-.16-.14-.4-.2-.71-.2-.24,0-.45.06-.62.17-.17.11-.29.27-.34.48-.05.2-.02.45.1.74l6.13,14.01c.14.3.3.52.5.67.2.14.45.22.77.22s.57-.07.76-.22c.19-.14.34-.37.46-.67l6.15-14.01c.11-.27.14-.51.1-.71-.04-.2-.14-.36-.29-.49Z"/><path class="cls-2" d="M303.15,90.32c.29,0,.51-.08.67-.23.16-.15.24-.37.24-.66,0-.27-.08-.48-.24-.62-.16-.14-.38-.21-.67-.21h-8.33c-.36,0-.64.1-.84.29-.2.2-.29.48-.29.84v13.69c0,.36.1.64.29.84.2.2.48.29.84.29h8.33c.29,0,.51-.07.67-.22.16-.14.24-.36.24-.65s-.08-.5-.24-.64c-.16-.14-.38-.22-.67-.22h-7.42v-5.52h6.95c.29,0,.5-.07.66-.22.15-.14.23-.36.23-.64,0-.27-.08-.48-.23-.63-.15-.15-.37-.23-.66-.23h-6.95v-5.27h7.42Z"/><path class="cls-2" d="M318.78,88.6h-12.01c-.29,0-.51.08-.68.23-.17.15-.25.37-.25.66s.08.51.25.67c.17.16.39.24.68.24h4.95v13.24c0,.35.09.62.27.8.18.19.44.28.79.28s.61-.09.78-.28c.17-.19.26-.46.26-.8v-13.24h4.95c.3,0,.53-.08.69-.24.16-.16.24-.38.24-.67s-.08-.51-.24-.66c-.16-.15-.39-.23-.69-.23Z"/><path class="cls-2" d="M332.16,90.32c.29,0,.51-.08.67-.23.16-.15.24-.37.24-.66,0-.27-.08-.48-.24-.62-.16-.14-.38-.21-.67-.21h-8.33c-.36,0-.64.1-.84.29-.2.2-.29.48-.29.84v13.69c0,.36.1.64.29.84.2.2.48.29.84.29h8.33c.29,0,.51-.07.67-.22.16-.14.24-.36.24-.65s-.08-.5-.24-.64c-.16-.14-.38-.22-.67-.22h-7.42v-5.52h6.95c.29,0,.5-.07.66-.22.15-.14.23-.36.23-.64,0-.27-.08-.48-.23-.63-.15-.15-.37-.23-.66-.23h-6.95v-5.27h7.42Z"/><path class="cls-2" d="M347.02,99.41c-.35-.66-.74-1.15-1.19-1.45-.19-.13-.41-.22-.63-.29.44-.09.86-.22,1.23-.39.8-.36,1.41-.89,1.83-1.57.42-.69.63-1.51.63-2.48,0-1.48-.46-2.62-1.39-3.43-.93-.81-2.25-1.21-3.97-1.21h-5.39c-.33,0-.59.09-.78.27-.19.18-.28.45-.28.79v13.96c0,.35.09.62.27.8.18.19.44.28.77.28.36,0,.63-.09.8-.28.17-.19.26-.46.26-.8v-5.72h2.72c.71,0,1.27.1,1.7.31.42.2.8.62,1.13,1.26l2.44,4.48c.14.26.29.45.48.58.18.13.42.19.72.19s.5-.07.66-.22c.15-.14.23-.33.25-.55.01-.23-.05-.46-.18-.7l-2.08-3.82ZM343.2,96.27h-4.01v-5.95h4.01c1.21,0,2.11.25,2.71.75.6.5.91,1.24.91,2.22s-.3,1.72-.91,2.23c-.6.51-1.51.76-2.71.76Z"/><path class="cls-2" d="M354.49,88.44c-.33,0-.59.09-.77.27-.18.18-.27.45-.27.81v14.1c0,.35.09.62.27.8.18.19.44.28.77.28.36,0,.63-.09.8-.28.17-.19.26-.46.26-.8v-14.1c0-.36-.09-.63-.27-.81-.18-.18-.44-.27-.79-.27Z"/><path class="cls-2" d="M372.48,88.44c-.32,0-.56.09-.74.26-.17.17-.26.43-.26.76v11.56l-9.03-11.97c-.17-.23-.32-.39-.45-.48-.14-.09-.33-.14-.59-.14-.27,0-.49.09-.66.27-.17.18-.25.44-.25.79v14.19c0,.32.09.57.26.75.17.18.41.27.71.27.32,0,.56-.09.72-.27s.25-.43.25-.75v-11.64l9.05,12.03c.17.23.33.39.49.49.16.1.36.15.6.15.26,0,.46-.09.62-.27.16-.18.24-.43.24-.75v-14.23c0-.33-.08-.58-.25-.76-.17-.17-.41-.26-.72-.26Z"/><path class="cls-2" d="M386.01,89.34c-.15-.32-.33-.55-.53-.69-.2-.14-.43-.22-.69-.22s-.49.07-.7.22c-.21.14-.38.37-.52.69l-6.18,13.98c-.12.26-.17.49-.14.7.03.21.12.38.28.5.16.12.37.18.64.18s.49-.07.66-.22c.17-.14.32-.38.45-.71l1.37-3.21h8.2l1.37,3.21c.14.3.29.53.47.69.18.16.42.24.72.24.27,0,.48-.06.63-.17.15-.11.24-.28.26-.5.02-.22-.03-.46-.15-.71l-6.18-13.98ZM381.41,98.85l3.33-7.87h.05l3.35,7.87h-6.72Z"/><path class="cls-2" d="M406.06,99.41c-.35-.66-.74-1.15-1.19-1.45-.19-.13-.41-.22-.63-.29.44-.09.86-.22,1.23-.39.8-.36,1.41-.89,1.83-1.57.42-.69.63-1.51.63-2.48,0-1.48-.46-2.62-1.39-3.43-.93-.81-2.25-1.21-3.97-1.21h-5.39c-.33,0-.59.09-.78.27-.19.18-.28.45-.28.79v13.96c0,.35.09.62.27.8.18.19.44.28.77.28.36,0,.63-.09.8-.28.17-.19.26-.46.26-.8v-5.72h2.72c.71,0,1.27.1,1.7.31.42.2.8.62,1.13,1.26l2.44,4.48c.14.26.29.45.48.58.18.13.42.19.72.19s.5-.07.66-.22c.15-.14.23-.33.25-.55.01-.23-.05-.46-.18-.7l-2.08-3.82ZM402.23,96.27h-4.01v-5.95h4.01c1.21,0,2.11.25,2.71.75.6.5.91,1.24.91,2.22s-.3,1.72-.91,2.23c-.6.51-1.51.76-2.71.76Z"/><path class="cls-2" d="M416.18,86.56c.7.53,1.51.79,2.41.79s1.71-.26,2.41-.79c.7-.53,1.16-1.33,1.39-2.4.06-.24.03-.44-.09-.59-.12-.15-.26-.23-.43-.23-.14-.01-.26,0-.36.06-.11.05-.19.12-.25.2-.06.08-.11.18-.14.28-.15.79-.47,1.34-.95,1.65-.48.32-1.01.48-1.58.48s-1.08-.16-1.57-.48c-.49-.32-.81-.87-.96-1.65-.03-.1-.07-.2-.14-.28-.06-.08-.14-.15-.24-.2-.1-.05-.22-.07-.37-.06-.17,0-.31.08-.43.23-.12.15-.15.35-.09.59.23,1.07.69,1.87,1.39,2.4Z"/><path class="cls-2" d="M425.99,103.33l-6.18-13.98c-.15-.32-.33-.55-.53-.69-.2-.14-.43-.22-.69-.22s-.49.07-.7.22c-.21.14-.38.37-.52.69l-6.18,13.98c-.12.26-.17.49-.14.7.03.21.12.38.28.5.16.12.37.18.64.18s.49-.07.66-.22c.17-.14.32-.38.45-.71l1.37-3.21h8.2l1.37,3.21c.14.3.29.53.48.69.18.16.42.24.72.24.27,0,.48-.06.63-.17.15-.11.24-.28.26-.5.02-.22-.03-.46-.15-.71ZM415.22,98.85l3.33-7.87h.05l3.35,7.87h-6.72Z"/><g id="Brandmark"><path id="Brandmark-2" class="cls-1" d="M71.79,43.32c-2.7-.67-5.54.18-8.22.63-3.72-9.45-15.06-7.36-19.95-.07-5.32,6.14-10.65,18.27,1,20.63-.33.65-.74,1.28-1.2,1.88-.01.02-.02.03-.03.04-1.49,1.89-3.56,3.43-5.52,4.26-1.67.26-1.35,2.72.33,2.34,3.98-1.57,7.53-4.71,9.04-8.77,6.28-1.51,7.84-10.2,2.53-13.85-.81-.57-2.21-1.53-2.94-.36-.26.49-.18,1.34.42,1.59.45.2.93.43,1.31.75,4.23,3.21,1.82,10.36-4.04,9.78-8.22-2.1-3.65-10.91.02-15.73,2.99-4.44,9.09-9.04,14.26-5.2,0,0,0,0,0,0,.45.33,1.2,1.13,1.37,1.37,1.27,1.02.95,4.03,2.93,3.83,2.55-.54,5.17-1.22,7.79-.97.74.32.96,1.28,1.1,2.01,0,0,.01.08.02.11.09.66-.01,1.31-.02,1.96-.08.94-.94,3.28-1.92,4.37-.08.14-1.2,1.36-1.73,1.71,0,.02-.07.07-.09.09-1.24.93-2.69,1.59-4.23,1.82-.89.06-2.29-.01-2.26,1.23.58,1.88.13,11.6,2.17,11.28.58-.03,1.23-.51,1.16-1.16-.3-3.01-.6-6.02-.9-9.04,7.02-.41,14.4-11.54,7.61-16.53ZM114.16,71.5c-.2-.63-.74-.89-1.36-.82-4.35.89-10.41-2.99-9.87-7.95,1.14-3.97,5.52-8.22,2.6-12.45,1.37-2.92,2.04-8.87-.86-10.89-1.98.46-3.36,2.62-5.07,3.73-3.55-3.63-8.01.61-11.9-.22-4.71-3.76-7.99,1.36-9.84,5.37-2.44,6.26,5.01,11.76,4.43,17.39-2.73,6.59,5.83,3.32.66-6.66-2.05-3.67-5.02-8.29-1.71-12.16.86-1.05,1.55-2.48,2.85-3.02.28-.03.61.07.86.22,3.54,3,7.47-.09,11.31-.06.33.06.67.11.97.26-.02-.01-.05-.03-.08-.05.44.2.89.48,1.03.98,1.32,2.59,4.33-1.98,5.82-2.71.39,1.28.45,2.66.29,3.99-.05.63-.57,2.53-1.17,3.44-.52,1.25.71,1.56,1.01,2.92,0,.01,0,.02,0,.03,0,0,0,0,0,0,.14.64.08,1.51-.46,2.81-.02.04-.04.09-.05.12-.83,1.97-2.11,3.74-2.82,5.76-1.18,4.95,2.86,9.98,7.59,11.12,1.54.22,5.98,1.43,5.76-1.16ZM84.3,43.82s.08,0,.1.02c-.03,0-.06-.01-.1-.02ZM79.11,104.6c2.17-3.01,1.96-7.29,3.98-10.45,4.41-6.51,12.27-10.34,19.87-11.6,4.18-.69,9.56.4,14.04-.85,5.13-1.12,10.21-3.82,15.58-2.9,0,0,0,0,0,0h0c.06.02.05.03,0,0,2.11,2.01-2.03,2.7-3.39,3.06-3.67.92-7.15,2.4-10.74,3.57-1.76.96-10.38,2.42-9.81,4.57.13.57.86,1.03,1.43.81,3.94-1.58,8.02-2.75,12.01-4.19,3.61-2.27,14.95-2.04,13.19-7.93,3.1-1.29,5.65-3.52,7.91-5.94.93-1.06,4.75-4.66,5.69-2.38,0-.02,0-.03,0-.05,0,.08.03.21.01.25-.02.08-.04.2-.03.14-7.04,8.98-17.46,14.77-27.2,20.48-5.53,1.76-11.48,1.93-17.07,3.6-4.7.87-8.55,3.96-10.65,8.22-.77,1.31,1.28,2.47,2.01,1.17.54-.97,1.14-1.91,1.81-2.79.35-.47,1.34-1.57,2.05-2.1,7.08-4.63,17.45-2.93,25-7.13,9.26-5.73,18.97-11.29,25.89-19.88,1.6-2.47-.76-5.67-3.59-4.84-4.46.91-6.52,5.7-10.31,7.82,2.74-4.98,7.11-9.34,8.58-14.9.1-4.63-5.72-4.44-7.51-.95-3.38-2.5-6.61,1.44-8,4.3-5.34-2.52-7.31,3.89-9.2,7.5-2.55,3.77-6.31,6.67-10.25,8.86-12.46-1-28.3,5.29-31.45,18.49-.07,1.59-3.5,6.94.13,6.05ZM148.6,69.79s.06.04.06.05c-.03-.02-.05-.04-.06-.05ZM148.17,69.66s.08,0,.14.02c-.05,0-.09-.01-.14-.02ZM143.07,59.74s0,.02,0,0h0ZM129.45,76.33c4.21-4.51,6.79-10.06,10.02-15.22.57-.71,1.15-1.53,1.98-1.98.4-.23,1.31-.03,1.58.52h0s0,.02,0,.02c.14,1.73-1.2,3.25-1.99,4.71-2.6,4.07-5.28,8.09-7.83,12.19-.46-.15-.95-.22-1.44-.25-.77-.05-1.55-.04-2.33,0ZM123.69,77.35c4.63-4.55,6.6-10.93,10.61-15.87.2-.14.4-.26.62-.36,0,0-.01,0-.02,0,.05-.02.26-.11.11-.02.35-.15.77-.2,1.13-.07,0,0,0,0,0,0,.02,0,.05.01.09.03-.02,0-.05-.02-.07-.02.15.05.28.14.4.25-2.92,5.56-6.2,10.92-10.58,15.48-.77.16-1.53.36-2.28.57ZM115.42,79.66c4.84-3.16,7.93-7.87,10.19-13.07.03-.04.08-.1.09-.1,0,0,0,.02-.02.05.25-.32.54-.59.91-.75.28-.11.63-.22.94-.25.13,0,.42-.02.54,0-.15-.03.14-.03.23.02-.01,0-.04,0-.08,0,.16.02.32.09.44.14,0,0,0,0,0,0,0,0,.02,0,.03.01s.02,0,.03.01c0,0-.02,0-.02,0,.02,0,.03.02.05.03-2.35,4.9-5.69,9.27-9.62,13-1.23.36-2.47.69-3.72.94ZM24.72,35.01C32.4,13.98,53.75.3,75.53,0c.03,0,.06,0,.09,0,.03,0,.06,0,.09,0,21.78.3,43.12,13.98,50.81,35.01,2.65,6.81,3.89,14.16,3.66,21.47-.05,1.49-2.38,1.5-2.32,0,1.27-31.05-24.58-53.79-52.23-54.15-27.66.37-53.5,23.1-52.23,54.15.05,1.5-2.27,1.49-2.32,0-.23-7.3,1.01-14.66,3.66-21.47ZM72.25,98.56c-3.14-13.2-18.98-19.49-31.45-18.49-3.95-2.19-7.71-5.09-10.25-8.86-1.9-3.61-3.86-10.02-9.2-7.5-1.39-2.87-4.61-6.8-8-4.3-1.79-3.49-7.61-3.68-7.51.95,1.47,5.56,5.83,9.92,8.58,14.9-3.78-2.11-5.85-6.9-10.31-7.82-2.83-.83-5.2,2.37-3.59,4.84,6.92,8.59,16.63,14.15,25.89,19.88,7.55,4.2,17.92,2.5,25,7.13.71.52,1.7,1.63,2.05,2.1.67.88,1.27,1.82,1.81,2.79.72,1.29,2.78.13,2.01-1.17-2.1-4.26-5.95-7.36-10.65-8.22-5.59-1.67-11.53-1.84-17.07-3.6-9.74-5.71-20.16-11.5-27.2-20.48,0,.06-.02-.05-.03-.14-.02-.05.01-.17.01-.25,0,.02,0,.03,0,.05.94-2.28,4.76,1.33,5.69,2.38,2.27,2.42,4.81,4.65,7.91,5.94-1.76,5.89,9.58,5.66,13.19,7.93,3.99,1.44,8.07,2.61,12.01,4.19.57.22,1.3-.25,1.43-.81.57-2.14-8.06-3.61-9.81-4.57-3.6-1.17-7.07-2.65-10.74-3.57-1.36-.36-5.5-1.05-3.39-3.06-.05.03-.06.01,0,0h0s0,0,0,0c0,0,0,0,0,0,5.37-.92,10.45,1.78,15.58,2.9,4.49,1.25,9.86.16,14.04.85,7.6,1.26,15.46,5.09,19.87,11.6,2.02,3.16,1.81,7.44,3.98,10.45,3.63.89.2-4.46.13-6.05ZM2.56,69.85s.03-.03.06-.05c-.02.01-.04.03-.06.05ZM2.92,69.68c.06-.02.11-.03.14-.02-.05,0-.09.02-.14.02ZM8.16,59.75s0,0,0,0h0ZM19.45,76.33c-.49.03-.99.09-1.44.25-2.55-4.1-5.23-8.12-7.83-12.19-.78-1.46-2.13-2.97-1.99-4.71,0,0,0,0,0-.02h0s0,0,0,0c.28-.56,1.18-.76,1.58-.52.83.45,1.4,1.27,1.98,1.98,3.23,5.15,5.81,10.71,10.02,15.22-.78-.04-1.56-.05-2.33,0ZM25.25,76.78c-4.38-4.56-7.65-9.92-10.58-15.48.11-.12.25-.2.4-.25-.02,0-.05.02-.07.02.04-.02.08-.04.09-.03,0,0,0,0,0,0,.36-.13.78-.08,1.13.07-.16-.08.06,0,.11.02,0,0,0,0-.02,0,.22.1.42.22.62.36,4.01,4.94,5.98,11.31,10.61,15.87-.76-.22-1.51-.42-2.28-.57ZM32.09,78.72c-3.93-3.73-7.28-8.1-9.62-13,.02-.01.03-.02.05-.03,0,0-.01,0-.02,0,0,0,.02,0,.03-.01s.02-.01.03-.01c0,0,0,0,0,0,.12-.04.28-.11.44-.14-.03,0-.06,0-.08,0,.08-.04.37-.04.23-.02.12,0,.41,0,.54,0,.31.03.66.14.94.25.38.16.66.42.91.75-.02-.03-.02-.04-.02-.05.01,0,.06.06.09.1,2.26,5.2,5.35,9.91,10.19,13.07-1.25-.24-2.49-.57-3.72-.94Z"/><path class="cls-2" d="M80.81,18.35v-6.39c.02-1.23-1.39-1.22-2.27-1.16-1.08.02-2.02.01-2.85,0h-.17c-.83.01-1.77.02-2.85,0-.88-.06-2.29-.06-2.27,1.16v6.39c-9.33.11-7.38-1.69-7.55,8.69-.06.88-.06,2.29,1.16,2.27h6.39v6.39c0,.64.52,1.16,1.16,1.16.08,0,1.91,0,3.95,0h.17c2.04,0,3.87,0,3.95,0,.64,0,1.16-.52,1.16-1.16v-6.39h6.39c1.23.02,1.22-1.39,1.16-2.27-.18-10.37,1.78-8.58-7.55-8.69ZM86.1,27.04c-8.95.14-7.49-1.64-7.55,7.55h-5.87c-.06-9.2,1.4-7.42-7.55-7.55v-6.04c9.2-.06,7.42,1.4,7.55-7.55h5.87c.14,8.95-1.64,7.49,7.55,7.55v6.04Z"/></g></g></g></svg>